<mxfile host="app.diagrams.net" agent="Mozilla/5.0 (Windows NT 10.0; Win64; x64) AppleWebKit/537.36 (KHTML, like Gecko) Chrome/131.0.0.0 Safari/537.36" version="25.0.1">
  <diagram name="第 1 页" id="E_BXFaPfvtu5mYQQo9au">
    <mxGraphModel grid="0" page="0" gridSize="10" guides="1" tooltips="1" connect="1" arrows="1" fold="1" pageScale="1" pageWidth="827" pageHeight="1169" math="0" shadow="0">
      <root>
        <mxCell id="0" />
        <mxCell id="1" parent="0" />
        <mxCell id="hw-Cy0S7zGGRTdD7gFje-3" value="&lt;font style=&quot;vertical-align: inherit;&quot;&gt;&lt;font style=&quot;vertical-align: inherit;&quot;&gt;&lt;font style=&quot;vertical-align: inherit;&quot;&gt;&lt;font style=&quot;vertical-align: inherit;&quot;&gt;租屋系統網站&lt;/font&gt;&lt;/font&gt;&lt;/font&gt;&lt;/font&gt;" style="swimlane;whiteSpace=wrap;html=1;startSize=23;" vertex="1" parent="1">
          <mxGeometry x="230" y="-5" width="410" height="735" as="geometry" />
        </mxCell>
        <mxCell id="Vvrnn_XJRDPYyNNGfjpP-145" style="rounded=0;orthogonalLoop=1;jettySize=auto;html=1;exitX=1;exitY=0.3333333333333333;exitDx=0;exitDy=0;exitPerimeter=0;entryX=0;entryY=0.5;entryDx=0;entryDy=0;" edge="1" parent="hw-Cy0S7zGGRTdD7gFje-3" source="hw-Cy0S7zGGRTdD7gFje-1" target="Vvrnn_XJRDPYyNNGfjpP-144">
          <mxGeometry relative="1" as="geometry" />
        </mxCell>
        <mxCell id="hw-Cy0S7zGGRTdD7gFje-1" value="&lt;font style=&quot;vertical-align: inherit;&quot;&gt;&lt;font style=&quot;vertical-align: inherit;&quot;&gt;房客&lt;/font&gt;&lt;/font&gt;" style="shape=umlActor;verticalLabelPosition=bottom;verticalAlign=top;html=1;outlineConnect=0;" vertex="1" parent="hw-Cy0S7zGGRTdD7gFje-3">
          <mxGeometry x="-110" y="300" width="30" height="60" as="geometry" />
        </mxCell>
        <mxCell id="hw-Cy0S7zGGRTdD7gFje-4" value="&lt;font style=&quot;vertical-align: inherit;&quot;&gt;&lt;font style=&quot;vertical-align: inherit;&quot;&gt;登入&lt;/font&gt;&lt;/font&gt;" style="ellipse;whiteSpace=wrap;html=1;" vertex="1" parent="hw-Cy0S7zGGRTdD7gFje-3">
          <mxGeometry x="50" y="150" width="90" height="50" as="geometry" />
        </mxCell>
        <mxCell id="hw-Cy0S7zGGRTdD7gFje-5" value="&lt;font style=&quot;vertical-align: inherit;&quot;&gt;&lt;font style=&quot;vertical-align: inherit;&quot;&gt;&lt;font style=&quot;vertical-align: inherit;&quot;&gt;&lt;font style=&quot;vertical-align: inherit;&quot;&gt;登出&lt;/font&gt;&lt;/font&gt;&lt;/font&gt;&lt;/font&gt;" style="ellipse;whiteSpace=wrap;html=1;" vertex="1" parent="hw-Cy0S7zGGRTdD7gFje-3">
          <mxGeometry x="50" y="220" width="90" height="50" as="geometry" />
        </mxCell>
        <mxCell id="hw-Cy0S7zGGRTdD7gFje-6" value="&lt;font style=&quot;vertical-align: inherit;&quot;&gt;&lt;font style=&quot;vertical-align: inherit;&quot;&gt;&lt;font style=&quot;vertical-align: inherit;&quot;&gt;&lt;font style=&quot;vertical-align: inherit;&quot;&gt;搜尋&lt;/font&gt;&lt;/font&gt;&lt;/font&gt;&lt;/font&gt;" style="ellipse;whiteSpace=wrap;html=1;" vertex="1" parent="hw-Cy0S7zGGRTdD7gFje-3">
          <mxGeometry x="50" y="290" width="90" height="50" as="geometry" />
        </mxCell>
        <mxCell id="hw-Cy0S7zGGRTdD7gFje-7" value="&lt;font style=&quot;vertical-align: inherit;&quot;&gt;&lt;font style=&quot;vertical-align: inherit;&quot;&gt;&lt;font style=&quot;vertical-align: inherit;&quot;&gt;&lt;font style=&quot;vertical-align: inherit;&quot;&gt;收藏房屋&lt;/font&gt;&lt;/font&gt;&lt;/font&gt;&lt;/font&gt;" style="ellipse;whiteSpace=wrap;html=1;" vertex="1" parent="hw-Cy0S7zGGRTdD7gFje-3">
          <mxGeometry x="50" y="360" width="90" height="50" as="geometry" />
        </mxCell>
        <mxCell id="hw-Cy0S7zGGRTdD7gFje-8" value="&lt;font style=&quot;vertical-align: inherit;&quot;&gt;&lt;font style=&quot;vertical-align: inherit;&quot;&gt;&lt;font style=&quot;vertical-align: inherit;&quot;&gt;&lt;font style=&quot;vertical-align: inherit;&quot;&gt;&lt;font style=&quot;vertical-align: inherit;&quot;&gt;&lt;font style=&quot;vertical-align: inherit;&quot;&gt;撰寫評論及星數&lt;/font&gt;&lt;/font&gt;&lt;/font&gt;&lt;/font&gt;&lt;/font&gt;&lt;/font&gt;" style="ellipse;whiteSpace=wrap;html=1;" vertex="1" parent="hw-Cy0S7zGGRTdD7gFje-3">
          <mxGeometry x="50" y="430" width="90" height="50" as="geometry" />
        </mxCell>
        <mxCell id="hw-Cy0S7zGGRTdD7gFje-15" value="" style="endArrow=classic;html=1;rounded=0;exitX=1;exitY=0.3333333333333333;exitDx=0;exitDy=0;exitPerimeter=0;entryX=0;entryY=0.5;entryDx=0;entryDy=0;" edge="1" parent="hw-Cy0S7zGGRTdD7gFje-3" source="hw-Cy0S7zGGRTdD7gFje-1" target="hw-Cy0S7zGGRTdD7gFje-5">
          <mxGeometry width="50" height="50" relative="1" as="geometry">
            <mxPoint x="-80" y="350" as="sourcePoint" />
            <mxPoint x="-90" y="340" as="targetPoint" />
          </mxGeometry>
        </mxCell>
        <mxCell id="hw-Cy0S7zGGRTdD7gFje-16" value="" style="endArrow=classic;html=1;rounded=0;exitX=1;exitY=0.3333333333333333;exitDx=0;exitDy=0;exitPerimeter=0;entryX=0;entryY=0.5;entryDx=0;entryDy=0;" edge="1" parent="hw-Cy0S7zGGRTdD7gFje-3" source="hw-Cy0S7zGGRTdD7gFje-1" target="hw-Cy0S7zGGRTdD7gFje-4">
          <mxGeometry width="50" height="50" relative="1" as="geometry">
            <mxPoint x="-140" y="310" as="sourcePoint" />
            <mxPoint x="-90" y="260" as="targetPoint" />
          </mxGeometry>
        </mxCell>
        <mxCell id="hw-Cy0S7zGGRTdD7gFje-17" value="" style="endArrow=classic;html=1;rounded=0;exitX=1;exitY=0.3333333333333333;exitDx=0;exitDy=0;exitPerimeter=0;entryX=0;entryY=0.5;entryDx=0;entryDy=0;" edge="1" parent="hw-Cy0S7zGGRTdD7gFje-3" source="hw-Cy0S7zGGRTdD7gFje-1" target="hw-Cy0S7zGGRTdD7gFje-6">
          <mxGeometry width="50" height="50" relative="1" as="geometry">
            <mxPoint x="-80" y="410" as="sourcePoint" />
            <mxPoint x="-90" y="400" as="targetPoint" />
          </mxGeometry>
        </mxCell>
        <mxCell id="hw-Cy0S7zGGRTdD7gFje-18" value="" style="endArrow=classic;html=1;rounded=0;exitX=1;exitY=0.3333333333333333;exitDx=0;exitDy=0;exitPerimeter=0;entryX=0;entryY=0.5;entryDx=0;entryDy=0;" edge="1" parent="hw-Cy0S7zGGRTdD7gFje-3" source="hw-Cy0S7zGGRTdD7gFje-1" target="hw-Cy0S7zGGRTdD7gFje-7">
          <mxGeometry width="50" height="50" relative="1" as="geometry">
            <mxPoint x="-80" y="480" as="sourcePoint" />
            <mxPoint x="-90" y="470" as="targetPoint" />
          </mxGeometry>
        </mxCell>
        <mxCell id="hw-Cy0S7zGGRTdD7gFje-19" value="" style="endArrow=classic;html=1;rounded=0;exitX=1;exitY=0.3333333333333333;exitDx=0;exitDy=0;exitPerimeter=0;entryX=0;entryY=0.5;entryDx=0;entryDy=0;" edge="1" parent="hw-Cy0S7zGGRTdD7gFje-3" source="hw-Cy0S7zGGRTdD7gFje-1" target="hw-Cy0S7zGGRTdD7gFje-8">
          <mxGeometry width="50" height="50" relative="1" as="geometry">
            <mxPoint x="-80" y="550" as="sourcePoint" />
            <mxPoint x="-90" y="540" as="targetPoint" />
          </mxGeometry>
        </mxCell>
        <mxCell id="Vvrnn_XJRDPYyNNGfjpP-2" style="rounded=0;orthogonalLoop=1;jettySize=auto;html=1;exitX=0;exitY=0.3333333333333333;exitDx=0;exitDy=0;exitPerimeter=0;entryX=1;entryY=0.5;entryDx=0;entryDy=0;" edge="1" parent="hw-Cy0S7zGGRTdD7gFje-3" source="hw-Cy0S7zGGRTdD7gFje-2" target="Vvrnn_XJRDPYyNNGfjpP-1">
          <mxGeometry relative="1" as="geometry" />
        </mxCell>
        <mxCell id="hw-Cy0S7zGGRTdD7gFje-2" value="&lt;font style=&quot;vertical-align: inherit;&quot;&gt;&lt;font style=&quot;vertical-align: inherit;&quot;&gt;&lt;font style=&quot;vertical-align: inherit;&quot;&gt;&lt;font style=&quot;vertical-align: inherit;&quot;&gt;房東&lt;/font&gt;&lt;/font&gt;&lt;/font&gt;&lt;/font&gt;" style="shape=umlActor;verticalLabelPosition=bottom;verticalAlign=top;html=1;outlineConnect=0;" vertex="1" parent="hw-Cy0S7zGGRTdD7gFje-3">
          <mxGeometry x="460" y="300" width="30" height="60" as="geometry" />
        </mxCell>
        <mxCell id="hw-Cy0S7zGGRTdD7gFje-9" value="&lt;font style=&quot;vertical-align: inherit;&quot;&gt;&lt;font style=&quot;vertical-align: inherit;&quot;&gt;登入&lt;/font&gt;&lt;/font&gt;" style="ellipse;whiteSpace=wrap;html=1;" vertex="1" parent="hw-Cy0S7zGGRTdD7gFje-3">
          <mxGeometry x="250" y="150" width="90" height="50" as="geometry" />
        </mxCell>
        <mxCell id="hw-Cy0S7zGGRTdD7gFje-10" value="&lt;font style=&quot;vertical-align: inherit;&quot;&gt;&lt;font style=&quot;vertical-align: inherit;&quot;&gt;&lt;font style=&quot;vertical-align: inherit;&quot;&gt;&lt;font style=&quot;vertical-align: inherit;&quot;&gt;登出&lt;/font&gt;&lt;/font&gt;&lt;/font&gt;&lt;/font&gt;" style="ellipse;whiteSpace=wrap;html=1;" vertex="1" parent="hw-Cy0S7zGGRTdD7gFje-3">
          <mxGeometry x="250" y="220" width="90" height="50" as="geometry" />
        </mxCell>
        <mxCell id="hw-Cy0S7zGGRTdD7gFje-11" value="&lt;font style=&quot;vertical-align: inherit;&quot;&gt;&lt;font style=&quot;vertical-align: inherit;&quot;&gt;PO文&lt;/font&gt;&lt;/font&gt;" style="ellipse;whiteSpace=wrap;html=1;" vertex="1" parent="hw-Cy0S7zGGRTdD7gFje-3">
          <mxGeometry x="250" y="290" width="90" height="50" as="geometry" />
        </mxCell>
        <mxCell id="hw-Cy0S7zGGRTdD7gFje-12" value="&lt;font style=&quot;vertical-align: inherit;&quot;&gt;&lt;font style=&quot;vertical-align: inherit;&quot;&gt;&lt;font style=&quot;vertical-align: inherit;&quot;&gt;&lt;font style=&quot;vertical-align: inherit;&quot;&gt;修改PO文&lt;/font&gt;&lt;/font&gt;&lt;/font&gt;&lt;/font&gt;" style="ellipse;whiteSpace=wrap;html=1;" vertex="1" parent="hw-Cy0S7zGGRTdD7gFje-3">
          <mxGeometry x="250" y="360" width="90" height="50" as="geometry" />
        </mxCell>
        <mxCell id="hw-Cy0S7zGGRTdD7gFje-14" value="&lt;font style=&quot;vertical-align: inherit;&quot;&gt;&lt;font style=&quot;vertical-align: inherit;&quot;&gt;&lt;font style=&quot;vertical-align: inherit;&quot;&gt;&lt;font style=&quot;vertical-align: inherit;&quot;&gt;審核評論者&lt;/font&gt;&lt;/font&gt;&lt;/font&gt;&lt;/font&gt;" style="ellipse;whiteSpace=wrap;html=1;" vertex="1" parent="hw-Cy0S7zGGRTdD7gFje-3">
          <mxGeometry x="250" y="430" width="90" height="50" as="geometry" />
        </mxCell>
        <mxCell id="hw-Cy0S7zGGRTdD7gFje-20" value="" style="endArrow=classic;html=1;rounded=0;exitX=0;exitY=0.3333333333333333;exitDx=0;exitDy=0;exitPerimeter=0;entryX=1;entryY=0.5;entryDx=0;entryDy=0;" edge="1" parent="hw-Cy0S7zGGRTdD7gFje-3" source="hw-Cy0S7zGGRTdD7gFje-2" target="hw-Cy0S7zGGRTdD7gFje-9">
          <mxGeometry width="50" height="50" relative="1" as="geometry">
            <mxPoint x="120" y="270" as="sourcePoint" />
            <mxPoint x="110" y="260" as="targetPoint" />
          </mxGeometry>
        </mxCell>
        <mxCell id="hw-Cy0S7zGGRTdD7gFje-21" value="" style="endArrow=classic;html=1;rounded=0;exitX=0;exitY=0.3333333333333333;exitDx=0;exitDy=0;exitPerimeter=0;entryX=1;entryY=0.5;entryDx=0;entryDy=0;" edge="1" parent="hw-Cy0S7zGGRTdD7gFje-3" source="hw-Cy0S7zGGRTdD7gFje-2" target="hw-Cy0S7zGGRTdD7gFje-10">
          <mxGeometry width="50" height="50" relative="1" as="geometry">
            <mxPoint x="460" y="390" as="sourcePoint" />
            <mxPoint x="110" y="330" as="targetPoint" />
          </mxGeometry>
        </mxCell>
        <mxCell id="hw-Cy0S7zGGRTdD7gFje-22" value="" style="endArrow=classic;html=1;rounded=0;exitX=0;exitY=0.3333333333333333;exitDx=0;exitDy=0;exitPerimeter=0;entryX=1;entryY=0.5;entryDx=0;entryDy=0;" edge="1" parent="hw-Cy0S7zGGRTdD7gFje-3" source="hw-Cy0S7zGGRTdD7gFje-2" target="hw-Cy0S7zGGRTdD7gFje-11">
          <mxGeometry width="50" height="50" relative="1" as="geometry">
            <mxPoint x="460" y="460" as="sourcePoint" />
            <mxPoint x="110" y="400" as="targetPoint" />
          </mxGeometry>
        </mxCell>
        <mxCell id="hw-Cy0S7zGGRTdD7gFje-23" value="" style="endArrow=classic;html=1;rounded=0;exitX=0;exitY=0.3333333333333333;exitDx=0;exitDy=0;exitPerimeter=0;entryX=1;entryY=0.5;entryDx=0;entryDy=0;" edge="1" parent="hw-Cy0S7zGGRTdD7gFje-3" source="hw-Cy0S7zGGRTdD7gFje-2" target="hw-Cy0S7zGGRTdD7gFje-14">
          <mxGeometry width="50" height="50" relative="1" as="geometry">
            <mxPoint x="460" y="600" as="sourcePoint" />
            <mxPoint x="110" y="540" as="targetPoint" />
          </mxGeometry>
        </mxCell>
        <mxCell id="hw-Cy0S7zGGRTdD7gFje-13" value="" style="endArrow=classic;html=1;rounded=0;entryX=1;entryY=0.5;entryDx=0;entryDy=0;exitX=0;exitY=0.3333333333333333;exitDx=0;exitDy=0;exitPerimeter=0;" edge="1" parent="hw-Cy0S7zGGRTdD7gFje-3" source="hw-Cy0S7zGGRTdD7gFje-2" target="hw-Cy0S7zGGRTdD7gFje-12">
          <mxGeometry width="50" height="50" relative="1" as="geometry">
            <mxPoint x="460" y="270" as="sourcePoint" />
            <mxPoint x="110" y="420" as="targetPoint" />
          </mxGeometry>
        </mxCell>
        <mxCell id="hw-Cy0S7zGGRTdD7gFje-26" value="&lt;font style=&quot;vertical-align: inherit;&quot;&gt;&lt;font style=&quot;vertical-align: inherit;&quot;&gt;註冊&lt;/font&gt;&lt;/font&gt;" style="ellipse;whiteSpace=wrap;html=1;" vertex="1" parent="hw-Cy0S7zGGRTdD7gFje-3">
          <mxGeometry x="50" y="80" width="90" height="50" as="geometry" />
        </mxCell>
        <mxCell id="hw-Cy0S7zGGRTdD7gFje-27" value="" style="endArrow=classic;html=1;rounded=0;exitX=1;exitY=0.3333333333333333;exitDx=0;exitDy=0;exitPerimeter=0;entryX=0;entryY=0.5;entryDx=0;entryDy=0;" edge="1" parent="hw-Cy0S7zGGRTdD7gFje-3" source="hw-Cy0S7zGGRTdD7gFje-1" target="hw-Cy0S7zGGRTdD7gFje-26">
          <mxGeometry width="50" height="50" relative="1" as="geometry">
            <mxPoint x="-80" y="250" as="sourcePoint" />
            <mxPoint x="-90" y="190" as="targetPoint" />
          </mxGeometry>
        </mxCell>
        <mxCell id="hw-Cy0S7zGGRTdD7gFje-28" value="&lt;font style=&quot;vertical-align: inherit;&quot;&gt;&lt;font style=&quot;vertical-align: inherit;&quot;&gt;註冊&lt;/font&gt;&lt;/font&gt;" style="ellipse;whiteSpace=wrap;html=1;" vertex="1" parent="hw-Cy0S7zGGRTdD7gFje-3">
          <mxGeometry x="250" y="80" width="90" height="50" as="geometry" />
        </mxCell>
        <mxCell id="hw-Cy0S7zGGRTdD7gFje-29" value="" style="endArrow=classic;html=1;rounded=0;exitX=0;exitY=0.3333333333333333;exitDx=0;exitDy=0;exitPerimeter=0;entryX=1;entryY=0.5;entryDx=0;entryDy=0;" edge="1" parent="hw-Cy0S7zGGRTdD7gFje-3" source="hw-Cy0S7zGGRTdD7gFje-2" target="hw-Cy0S7zGGRTdD7gFje-28">
          <mxGeometry width="50" height="50" relative="1" as="geometry">
            <mxPoint x="460" y="250" as="sourcePoint" />
            <mxPoint x="110" y="190" as="targetPoint" />
          </mxGeometry>
        </mxCell>
        <mxCell id="hw-Cy0S7zGGRTdD7gFje-132" value="登入" style="ellipse;whiteSpace=wrap;html=1;" vertex="1" parent="hw-Cy0S7zGGRTdD7gFje-3">
          <mxGeometry x="10" y="625" width="90" height="50" as="geometry" />
        </mxCell>
        <mxCell id="hw-Cy0S7zGGRTdD7gFje-135" value="審核房東PO文" style="ellipse;whiteSpace=wrap;html=1;" vertex="1" parent="hw-Cy0S7zGGRTdD7gFje-3">
          <mxGeometry x="150" y="625" width="90" height="50" as="geometry" />
        </mxCell>
        <mxCell id="Vvrnn_XJRDPYyNNGfjpP-1" value="&lt;font style=&quot;vertical-align: inherit;&quot;&gt;&lt;font style=&quot;vertical-align: inherit;&quot;&gt;&lt;font style=&quot;vertical-align: inherit;&quot;&gt;&lt;font style=&quot;vertical-align: inherit;&quot;&gt;查看評論者個資&lt;/font&gt;&lt;/font&gt;&lt;/font&gt;&lt;/font&gt;" style="ellipse;whiteSpace=wrap;html=1;" vertex="1" parent="hw-Cy0S7zGGRTdD7gFje-3">
          <mxGeometry x="250" y="505" width="90" height="50" as="geometry" />
        </mxCell>
        <mxCell id="Vvrnn_XJRDPYyNNGfjpP-3" value="審核房客評論" style="ellipse;whiteSpace=wrap;html=1;" vertex="1" parent="hw-Cy0S7zGGRTdD7gFje-3">
          <mxGeometry x="290" y="625" width="90" height="50" as="geometry" />
        </mxCell>
        <mxCell id="Vvrnn_XJRDPYyNNGfjpP-144" value="&lt;font style=&quot;vertical-align: inherit;&quot;&gt;&lt;font style=&quot;vertical-align: inherit;&quot;&gt;&lt;font style=&quot;vertical-align: inherit;&quot;&gt;&lt;font style=&quot;vertical-align: inherit;&quot;&gt;&lt;font style=&quot;vertical-align: inherit;&quot;&gt;&lt;font style=&quot;vertical-align: inherit;&quot;&gt;查看評論及星數&lt;/font&gt;&lt;/font&gt;&lt;/font&gt;&lt;/font&gt;&lt;/font&gt;&lt;/font&gt;" style="ellipse;whiteSpace=wrap;html=1;" vertex="1" parent="hw-Cy0S7zGGRTdD7gFje-3">
          <mxGeometry x="50" y="505" width="90" height="50" as="geometry" />
        </mxCell>
        <mxCell id="hw-Cy0S7zGGRTdD7gFje-30" value="" style="ellipse;html=1;shape=endState;fillColor=#000000;strokeColor=#ff0000;" vertex="1" parent="1">
          <mxGeometry x="131.18" y="1180" width="30" height="30" as="geometry" />
        </mxCell>
        <mxCell id="hw-Cy0S7zGGRTdD7gFje-36" style="edgeStyle=orthogonalEdgeStyle;rounded=0;orthogonalLoop=1;jettySize=auto;html=1;entryX=0.5;entryY=0;entryDx=0;entryDy=0;" edge="1" parent="1" target="hw-Cy0S7zGGRTdD7gFje-33">
          <mxGeometry relative="1" as="geometry">
            <mxPoint x="146.18" y="1270" as="sourcePoint" />
          </mxGeometry>
        </mxCell>
        <mxCell id="hw-Cy0S7zGGRTdD7gFje-37" style="edgeStyle=orthogonalEdgeStyle;rounded=0;orthogonalLoop=1;jettySize=auto;html=1;exitX=0.611;exitY=0.744;exitDx=0;exitDy=0;entryX=0.5;entryY=1;entryDx=0;entryDy=0;exitPerimeter=0;" edge="1" parent="1" source="hw-Cy0S7zGGRTdD7gFje-31" target="hw-Cy0S7zGGRTdD7gFje-30">
          <mxGeometry relative="1" as="geometry">
            <Array as="points">
              <mxPoint x="146.18" y="1272" />
            </Array>
          </mxGeometry>
        </mxCell>
        <mxCell id="hw-Cy0S7zGGRTdD7gFje-31" value="" style="ellipse;html=1;shape=startState;fillColor=#000000;strokeColor=#33001A;" vertex="1" parent="1">
          <mxGeometry x="131.18" y="1250" width="30" height="30" as="geometry" />
        </mxCell>
        <mxCell id="hw-Cy0S7zGGRTdD7gFje-40" style="edgeStyle=orthogonalEdgeStyle;rounded=0;orthogonalLoop=1;jettySize=auto;html=1;exitX=0.5;exitY=1;exitDx=0;exitDy=0;" edge="1" parent="1" source="hw-Cy0S7zGGRTdD7gFje-33" target="hw-Cy0S7zGGRTdD7gFje-38">
          <mxGeometry relative="1" as="geometry" />
        </mxCell>
        <mxCell id="hw-Cy0S7zGGRTdD7gFje-33" value="" style="rounded=1;whiteSpace=wrap;html=1;fillColor=#33001A;" vertex="1" parent="1">
          <mxGeometry x="92.43" y="1320" width="107.5" height="30" as="geometry" />
        </mxCell>
        <mxCell id="hw-Cy0S7zGGRTdD7gFje-44" style="edgeStyle=orthogonalEdgeStyle;rounded=0;orthogonalLoop=1;jettySize=auto;html=1;exitX=0.5;exitY=1;exitDx=0;exitDy=0;entryX=0.5;entryY=0;entryDx=0;entryDy=0;" edge="1" parent="1" source="hw-Cy0S7zGGRTdD7gFje-38" target="hw-Cy0S7zGGRTdD7gFje-55">
          <mxGeometry relative="1" as="geometry">
            <mxPoint x="182.43" y="1460" as="targetPoint" />
          </mxGeometry>
        </mxCell>
        <mxCell id="hw-Cy0S7zGGRTdD7gFje-38" value="登入" style="rounded=1;whiteSpace=wrap;html=1;" vertex="1" parent="1">
          <mxGeometry x="104.93" y="1390" width="82.5" height="40" as="geometry" />
        </mxCell>
        <mxCell id="hw-Cy0S7zGGRTdD7gFje-46" style="edgeStyle=orthogonalEdgeStyle;rounded=0;orthogonalLoop=1;jettySize=auto;html=1;exitX=0.5;exitY=1;exitDx=0;exitDy=0;entryX=0.5;entryY=0;entryDx=0;entryDy=0;" edge="1" parent="1" source="hw-Cy0S7zGGRTdD7gFje-43" target="hw-Cy0S7zGGRTdD7gFje-45">
          <mxGeometry relative="1" as="geometry" />
        </mxCell>
        <mxCell id="hw-Cy0S7zGGRTdD7gFje-43" value="篩選類別搜尋" style="rounded=1;whiteSpace=wrap;html=1;" vertex="1" parent="1">
          <mxGeometry x="104.93" y="1550" width="82.5" height="40" as="geometry" />
        </mxCell>
        <mxCell id="hw-Cy0S7zGGRTdD7gFje-47" style="edgeStyle=orthogonalEdgeStyle;rounded=0;orthogonalLoop=1;jettySize=auto;html=1;exitX=1;exitY=0.5;exitDx=0;exitDy=0;entryX=1;entryY=0.5;entryDx=0;entryDy=0;" edge="1" parent="1" source="hw-Cy0S7zGGRTdD7gFje-52" target="hw-Cy0S7zGGRTdD7gFje-43">
          <mxGeometry relative="1" as="geometry" />
        </mxCell>
        <mxCell id="hw-Cy0S7zGGRTdD7gFje-48" value="重新輸入" style="edgeLabel;html=1;align=center;verticalAlign=middle;resizable=0;points=[];" connectable="0" vertex="1" parent="hw-Cy0S7zGGRTdD7gFje-47">
          <mxGeometry x="-0.0102" y="-2" relative="1" as="geometry">
            <mxPoint x="43" y="42" as="offset" />
          </mxGeometry>
        </mxCell>
        <mxCell id="hw-Cy0S7zGGRTdD7gFje-50" style="edgeStyle=orthogonalEdgeStyle;rounded=0;orthogonalLoop=1;jettySize=auto;html=1;exitX=0.5;exitY=1;exitDx=0;exitDy=0;entryX=0.5;entryY=0;entryDx=0;entryDy=0;" edge="1" parent="1" source="hw-Cy0S7zGGRTdD7gFje-45" target="hw-Cy0S7zGGRTdD7gFje-49">
          <mxGeometry relative="1" as="geometry" />
        </mxCell>
        <mxCell id="hw-Cy0S7zGGRTdD7gFje-51" value="查詢成功" style="edgeLabel;html=1;align=center;verticalAlign=middle;resizable=0;points=[];" connectable="0" vertex="1" parent="hw-Cy0S7zGGRTdD7gFje-50">
          <mxGeometry x="-0.4667" y="1" relative="1" as="geometry">
            <mxPoint as="offset" />
          </mxGeometry>
        </mxCell>
        <mxCell id="hw-Cy0S7zGGRTdD7gFje-53" style="edgeStyle=orthogonalEdgeStyle;rounded=0;orthogonalLoop=1;jettySize=auto;html=1;exitX=1;exitY=0.5;exitDx=0;exitDy=0;entryX=0;entryY=0.5;entryDx=0;entryDy=0;" edge="1" parent="1" source="hw-Cy0S7zGGRTdD7gFje-45" target="hw-Cy0S7zGGRTdD7gFje-52">
          <mxGeometry relative="1" as="geometry" />
        </mxCell>
        <mxCell id="hw-Cy0S7zGGRTdD7gFje-54" value="查無類別" style="edgeLabel;html=1;align=center;verticalAlign=middle;resizable=0;points=[];" connectable="0" vertex="1" parent="hw-Cy0S7zGGRTdD7gFje-53">
          <mxGeometry x="-0.019" y="3" relative="1" as="geometry">
            <mxPoint as="offset" />
          </mxGeometry>
        </mxCell>
        <mxCell id="hw-Cy0S7zGGRTdD7gFje-45" value="" style="rhombus;whiteSpace=wrap;html=1;" vertex="1" parent="1">
          <mxGeometry x="131.81" y="1630" width="28.75" height="30" as="geometry" />
        </mxCell>
        <mxCell id="hw-Cy0S7zGGRTdD7gFje-49" value="顯示符合條件之結果" style="rounded=1;whiteSpace=wrap;html=1;" vertex="1" parent="1">
          <mxGeometry x="104.93" y="1700" width="82.5" height="40" as="geometry" />
        </mxCell>
        <mxCell id="hw-Cy0S7zGGRTdD7gFje-52" value="回傳錯誤訊息" style="rounded=1;whiteSpace=wrap;html=1;" vertex="1" parent="1">
          <mxGeometry x="272.43" y="1625" width="82.5" height="40" as="geometry" />
        </mxCell>
        <mxCell id="hw-Cy0S7zGGRTdD7gFje-58" style="edgeStyle=orthogonalEdgeStyle;rounded=0;orthogonalLoop=1;jettySize=auto;html=1;exitX=0.5;exitY=1;exitDx=0;exitDy=0;entryX=0.5;entryY=0;entryDx=0;entryDy=0;" edge="1" parent="1" source="hw-Cy0S7zGGRTdD7gFje-55" target="hw-Cy0S7zGGRTdD7gFje-43">
          <mxGeometry relative="1" as="geometry" />
        </mxCell>
        <mxCell id="hw-Cy0S7zGGRTdD7gFje-55" value="選擇縣市及區域" style="rounded=1;whiteSpace=wrap;html=1;" vertex="1" parent="1">
          <mxGeometry x="104.93" y="1469" width="82.5" height="40" as="geometry" />
        </mxCell>
        <mxCell id="hw-Cy0S7zGGRTdD7gFje-69" style="edgeStyle=orthogonalEdgeStyle;rounded=0;orthogonalLoop=1;jettySize=auto;html=1;exitX=0;exitY=0.5;exitDx=0;exitDy=0;entryX=0;entryY=0.5;entryDx=0;entryDy=0;" edge="1" parent="1" source="hw-Cy0S7zGGRTdD7gFje-49" target="hw-Cy0S7zGGRTdD7gFje-31">
          <mxGeometry relative="1" as="geometry">
            <mxPoint x="132.43" y="1265" as="targetPoint" />
            <Array as="points">
              <mxPoint x="72" y="1720" />
              <mxPoint x="72" y="1265" />
            </Array>
            <mxPoint x="104.93000000000006" y="1950" as="sourcePoint" />
          </mxGeometry>
        </mxCell>
        <mxCell id="hw-Cy0S7zGGRTdD7gFje-185" value="" style="ellipse;html=1;shape=endState;fillColor=#000000;strokeColor=#ff0000;" vertex="1" parent="1">
          <mxGeometry x="1327.5100000000002" y="4337.5" width="30" height="30" as="geometry" />
        </mxCell>
        <mxCell id="hw-Cy0S7zGGRTdD7gFje-186" style="edgeStyle=orthogonalEdgeStyle;rounded=0;orthogonalLoop=1;jettySize=auto;html=1;entryX=0.5;entryY=0;entryDx=0;entryDy=0;" edge="1" parent="1" target="hw-Cy0S7zGGRTdD7gFje-190">
          <mxGeometry relative="1" as="geometry">
            <mxPoint x="1342.5100000000002" y="4427.5" as="sourcePoint" />
          </mxGeometry>
        </mxCell>
        <mxCell id="hw-Cy0S7zGGRTdD7gFje-187" style="edgeStyle=orthogonalEdgeStyle;rounded=0;orthogonalLoop=1;jettySize=auto;html=1;exitX=0.611;exitY=0.744;exitDx=0;exitDy=0;entryX=0.5;entryY=1;entryDx=0;entryDy=0;exitPerimeter=0;" edge="1" parent="1" source="hw-Cy0S7zGGRTdD7gFje-188" target="hw-Cy0S7zGGRTdD7gFje-185">
          <mxGeometry relative="1" as="geometry">
            <Array as="points">
              <mxPoint x="1342.5100000000002" y="4429.5" />
            </Array>
          </mxGeometry>
        </mxCell>
        <mxCell id="hw-Cy0S7zGGRTdD7gFje-188" value="" style="ellipse;html=1;shape=startState;fillColor=#000000;strokeColor=#33001A;" vertex="1" parent="1">
          <mxGeometry x="1327.5100000000002" y="4407.5" width="30" height="30" as="geometry" />
        </mxCell>
        <mxCell id="hw-Cy0S7zGGRTdD7gFje-189" style="edgeStyle=orthogonalEdgeStyle;rounded=0;orthogonalLoop=1;jettySize=auto;html=1;exitX=0.5;exitY=1;exitDx=0;exitDy=0;" edge="1" parent="1" source="hw-Cy0S7zGGRTdD7gFje-190">
          <mxGeometry relative="1" as="geometry">
            <mxPoint x="1342.5247058823534" y="4547.5" as="targetPoint" />
          </mxGeometry>
        </mxCell>
        <mxCell id="hw-Cy0S7zGGRTdD7gFje-190" value="" style="rounded=1;whiteSpace=wrap;html=1;fillColor=#33001A;" vertex="1" parent="1">
          <mxGeometry x="1288.7600000000002" y="4477.5" width="107.5" height="30" as="geometry" />
        </mxCell>
        <mxCell id="hw-Cy0S7zGGRTdD7gFje-193" style="edgeStyle=orthogonalEdgeStyle;rounded=0;orthogonalLoop=1;jettySize=auto;html=1;exitX=0.5;exitY=1;exitDx=0;exitDy=0;entryX=0.5;entryY=0;entryDx=0;entryDy=0;" edge="1" parent="1" source="hw-Cy0S7zGGRTdD7gFje-194">
          <mxGeometry relative="1" as="geometry">
            <mxPoint x="1342.5150000000003" y="4708.5" as="targetPoint" />
          </mxGeometry>
        </mxCell>
        <mxCell id="hw-Cy0S7zGGRTdD7gFje-194" value="確認登出" style="rounded=1;whiteSpace=wrap;html=1;" vertex="1" parent="1">
          <mxGeometry x="1301.2600000000002" y="4628.5" width="82.5" height="40" as="geometry" />
        </mxCell>
        <mxCell id="hw-Cy0S7zGGRTdD7gFje-200" value="登出成功" style="rounded=1;whiteSpace=wrap;html=1;" vertex="1" parent="1">
          <mxGeometry x="1301.2600000000002" y="4787.5" width="82.5" height="40" as="geometry" />
        </mxCell>
        <mxCell id="hw-Cy0S7zGGRTdD7gFje-201" style="edgeStyle=orthogonalEdgeStyle;rounded=0;orthogonalLoop=1;jettySize=auto;html=1;exitX=0.5;exitY=1;exitDx=0;exitDy=0;entryX=0.5;entryY=0;entryDx=0;entryDy=0;" edge="1" parent="1" source="hw-Cy0S7zGGRTdD7gFje-202" target="hw-Cy0S7zGGRTdD7gFje-194">
          <mxGeometry relative="1" as="geometry" />
        </mxCell>
        <mxCell id="hw-Cy0S7zGGRTdD7gFje-202" value="點選登出" style="rounded=1;whiteSpace=wrap;html=1;" vertex="1" parent="1">
          <mxGeometry x="1301.2600000000002" y="4547.5" width="82.5" height="40" as="geometry" />
        </mxCell>
        <mxCell id="hw-Cy0S7zGGRTdD7gFje-203" style="edgeStyle=orthogonalEdgeStyle;rounded=0;orthogonalLoop=1;jettySize=auto;html=1;exitX=0;exitY=0.5;exitDx=0;exitDy=0;entryX=0;entryY=0.5;entryDx=0;entryDy=0;" edge="1" parent="1" source="hw-Cy0S7zGGRTdD7gFje-200" target="hw-Cy0S7zGGRTdD7gFje-188">
          <mxGeometry relative="1" as="geometry">
            <mxPoint x="1328.7600000000002" y="4422.5" as="targetPoint" />
            <Array as="points">
              <mxPoint x="1268.7600000000002" y="4807.5" />
              <mxPoint x="1268.7600000000002" y="4422.5" />
            </Array>
            <mxPoint x="1301.2600000000002" y="5107.5" as="sourcePoint" />
          </mxGeometry>
        </mxCell>
        <mxCell id="hw-Cy0S7zGGRTdD7gFje-205" style="edgeStyle=orthogonalEdgeStyle;rounded=0;orthogonalLoop=1;jettySize=auto;html=1;exitX=0.5;exitY=1;exitDx=0;exitDy=0;entryX=0.5;entryY=0;entryDx=0;entryDy=0;" edge="1" parent="1" source="hw-Cy0S7zGGRTdD7gFje-204" target="hw-Cy0S7zGGRTdD7gFje-200">
          <mxGeometry relative="1" as="geometry" />
        </mxCell>
        <mxCell id="hw-Cy0S7zGGRTdD7gFje-204" value="清除token" style="rounded=1;whiteSpace=wrap;html=1;" vertex="1" parent="1">
          <mxGeometry x="1301.2600000000002" y="4708.5" width="82.5" height="40" as="geometry" />
        </mxCell>
        <mxCell id="hw-Cy0S7zGGRTdD7gFje-206" value="" style="ellipse;html=1;shape=endState;fillColor=#000000;strokeColor=#ff0000;" vertex="1" parent="1">
          <mxGeometry x="714.71" y="2280" width="30" height="30" as="geometry" />
        </mxCell>
        <mxCell id="hw-Cy0S7zGGRTdD7gFje-207" style="edgeStyle=orthogonalEdgeStyle;rounded=0;orthogonalLoop=1;jettySize=auto;html=1;entryX=0.5;entryY=0;entryDx=0;entryDy=0;" edge="1" parent="1" target="hw-Cy0S7zGGRTdD7gFje-211">
          <mxGeometry relative="1" as="geometry">
            <mxPoint x="729.71" y="2370" as="sourcePoint" />
          </mxGeometry>
        </mxCell>
        <mxCell id="hw-Cy0S7zGGRTdD7gFje-208" style="edgeStyle=orthogonalEdgeStyle;rounded=0;orthogonalLoop=1;jettySize=auto;html=1;exitX=0.611;exitY=0.744;exitDx=0;exitDy=0;entryX=0.5;entryY=1;entryDx=0;entryDy=0;exitPerimeter=0;" edge="1" parent="1" source="hw-Cy0S7zGGRTdD7gFje-209" target="hw-Cy0S7zGGRTdD7gFje-206">
          <mxGeometry relative="1" as="geometry">
            <Array as="points">
              <mxPoint x="729.71" y="2372" />
            </Array>
          </mxGeometry>
        </mxCell>
        <mxCell id="hw-Cy0S7zGGRTdD7gFje-209" value="" style="ellipse;html=1;shape=startState;fillColor=#000000;strokeColor=#33001A;" vertex="1" parent="1">
          <mxGeometry x="714.71" y="2350" width="30" height="30" as="geometry" />
        </mxCell>
        <mxCell id="hw-Cy0S7zGGRTdD7gFje-210" style="edgeStyle=orthogonalEdgeStyle;rounded=0;orthogonalLoop=1;jettySize=auto;html=1;exitX=0.5;exitY=1;exitDx=0;exitDy=0;" edge="1" parent="1" source="hw-Cy0S7zGGRTdD7gFje-211" target="hw-Cy0S7zGGRTdD7gFje-213">
          <mxGeometry relative="1" as="geometry" />
        </mxCell>
        <mxCell id="hw-Cy0S7zGGRTdD7gFje-211" value="" style="rounded=1;whiteSpace=wrap;html=1;fillColor=#33001A;" vertex="1" parent="1">
          <mxGeometry x="675.96" y="2420" width="107.5" height="30" as="geometry" />
        </mxCell>
        <mxCell id="hw-Cy0S7zGGRTdD7gFje-212" style="edgeStyle=orthogonalEdgeStyle;rounded=0;orthogonalLoop=1;jettySize=auto;html=1;exitX=0.5;exitY=1;exitDx=0;exitDy=0;entryX=0.5;entryY=0;entryDx=0;entryDy=0;" edge="1" parent="1" source="hw-Cy0S7zGGRTdD7gFje-213" target="hw-Cy0S7zGGRTdD7gFje-223">
          <mxGeometry relative="1" as="geometry">
            <mxPoint x="765.96" y="2560" as="targetPoint" />
          </mxGeometry>
        </mxCell>
        <mxCell id="hw-Cy0S7zGGRTdD7gFje-213" value="登入" style="rounded=1;whiteSpace=wrap;html=1;" vertex="1" parent="1">
          <mxGeometry x="688.46" y="2490" width="82.5" height="40" as="geometry" />
        </mxCell>
        <mxCell id="hw-Cy0S7zGGRTdD7gFje-214" style="edgeStyle=orthogonalEdgeStyle;rounded=0;orthogonalLoop=1;jettySize=auto;html=1;exitX=0.5;exitY=1;exitDx=0;exitDy=0;entryX=0.5;entryY=0;entryDx=0;entryDy=0;" edge="1" parent="1" source="hw-Cy0S7zGGRTdD7gFje-215" target="hw-Cy0S7zGGRTdD7gFje-227">
          <mxGeometry relative="1" as="geometry">
            <mxPoint x="729.97" y="2720" as="targetPoint" />
          </mxGeometry>
        </mxCell>
        <mxCell id="hw-Cy0S7zGGRTdD7gFje-215" value="修改PO文" style="rounded=1;whiteSpace=wrap;html=1;" vertex="1" parent="1">
          <mxGeometry x="688.46" y="2650" width="82.5" height="40" as="geometry" />
        </mxCell>
        <mxCell id="hw-Cy0S7zGGRTdD7gFje-216" style="edgeStyle=orthogonalEdgeStyle;rounded=0;orthogonalLoop=1;jettySize=auto;html=1;exitX=0.5;exitY=1;exitDx=0;exitDy=0;entryX=0.5;entryY=0;entryDx=0;entryDy=0;" edge="1" parent="1" source="hw-Cy0S7zGGRTdD7gFje-220" target="hw-Cy0S7zGGRTdD7gFje-221">
          <mxGeometry relative="1" as="geometry">
            <mxPoint x="729.21" y="2922.4" as="targetPoint" />
          </mxGeometry>
        </mxCell>
        <mxCell id="hw-Cy0S7zGGRTdD7gFje-217" value="通過" style="edgeLabel;html=1;align=center;verticalAlign=middle;resizable=0;points=[];" connectable="0" vertex="1" parent="hw-Cy0S7zGGRTdD7gFje-216">
          <mxGeometry x="-0.4667" y="1" relative="1" as="geometry">
            <mxPoint as="offset" />
          </mxGeometry>
        </mxCell>
        <mxCell id="hw-Cy0S7zGGRTdD7gFje-218" style="edgeStyle=orthogonalEdgeStyle;rounded=0;orthogonalLoop=1;jettySize=auto;html=1;exitX=1;exitY=0.5;exitDx=0;exitDy=0;entryX=1;entryY=0.5;entryDx=0;entryDy=0;" edge="1" parent="1" source="hw-Cy0S7zGGRTdD7gFje-220" target="hw-Cy0S7zGGRTdD7gFje-223">
          <mxGeometry relative="1" as="geometry" />
        </mxCell>
        <mxCell id="hw-Cy0S7zGGRTdD7gFje-219" value="未通過" style="edgeLabel;html=1;align=center;verticalAlign=middle;resizable=0;points=[];" connectable="0" vertex="1" parent="hw-Cy0S7zGGRTdD7gFje-218">
          <mxGeometry x="0.0946" y="-1" relative="1" as="geometry">
            <mxPoint y="-1" as="offset" />
          </mxGeometry>
        </mxCell>
        <mxCell id="hw-Cy0S7zGGRTdD7gFje-220" value="" style="rhombus;whiteSpace=wrap;html=1;" vertex="1" parent="1">
          <mxGeometry x="714.71" y="2900" width="28.75" height="30" as="geometry" />
        </mxCell>
        <mxCell id="hw-Cy0S7zGGRTdD7gFje-221" value="查看結果" style="rounded=1;whiteSpace=wrap;html=1;" vertex="1" parent="1">
          <mxGeometry x="687.83" y="2980" width="82.5" height="40" as="geometry" />
        </mxCell>
        <mxCell id="hw-Cy0S7zGGRTdD7gFje-222" style="edgeStyle=orthogonalEdgeStyle;rounded=0;orthogonalLoop=1;jettySize=auto;html=1;exitX=0.5;exitY=1;exitDx=0;exitDy=0;entryX=0.5;entryY=0;entryDx=0;entryDy=0;" edge="1" parent="1" source="hw-Cy0S7zGGRTdD7gFje-223" target="hw-Cy0S7zGGRTdD7gFje-215">
          <mxGeometry relative="1" as="geometry" />
        </mxCell>
        <mxCell id="hw-Cy0S7zGGRTdD7gFje-223" value="查看PO文" style="rounded=1;whiteSpace=wrap;html=1;" vertex="1" parent="1">
          <mxGeometry x="688.46" y="2569" width="82.5" height="40" as="geometry" />
        </mxCell>
        <mxCell id="hw-Cy0S7zGGRTdD7gFje-224" style="edgeStyle=orthogonalEdgeStyle;rounded=0;orthogonalLoop=1;jettySize=auto;html=1;exitX=0;exitY=0.5;exitDx=0;exitDy=0;" edge="1" parent="1" source="hw-Cy0S7zGGRTdD7gFje-221">
          <mxGeometry relative="1" as="geometry">
            <mxPoint x="717.21" y="2365" as="targetPoint" />
            <Array as="points">
              <mxPoint x="629.97" y="3000" />
              <mxPoint x="629.97" y="2365" />
            </Array>
            <mxPoint x="647.25" y="3015" as="sourcePoint" />
          </mxGeometry>
        </mxCell>
        <mxCell id="hw-Cy0S7zGGRTdD7gFje-225" style="edgeStyle=orthogonalEdgeStyle;rounded=0;orthogonalLoop=1;jettySize=auto;html=1;exitX=0.5;exitY=1;exitDx=0;exitDy=0;entryX=0.5;entryY=0;entryDx=0;entryDy=0;" edge="1" parent="1" source="hw-Cy0S7zGGRTdD7gFje-226" target="hw-Cy0S7zGGRTdD7gFje-220">
          <mxGeometry relative="1" as="geometry" />
        </mxCell>
        <mxCell id="hw-Cy0S7zGGRTdD7gFje-226" value="待管理員審核通過" style="rounded=1;whiteSpace=wrap;html=1;" vertex="1" parent="1">
          <mxGeometry x="687.83" y="2812.4" width="82.5" height="40" as="geometry" />
        </mxCell>
        <mxCell id="hw-Cy0S7zGGRTdD7gFje-227" value="確認送出" style="rounded=1;whiteSpace=wrap;html=1;" vertex="1" parent="1">
          <mxGeometry x="688.46" y="2732.4" width="82.5" height="40" as="geometry" />
        </mxCell>
        <mxCell id="hw-Cy0S7zGGRTdD7gFje-228" style="edgeStyle=orthogonalEdgeStyle;rounded=0;orthogonalLoop=1;jettySize=auto;html=1;exitX=0.5;exitY=1;exitDx=0;exitDy=0;entryX=0.5;entryY=0;entryDx=0;entryDy=0;" edge="1" parent="1" target="hw-Cy0S7zGGRTdD7gFje-226">
          <mxGeometry relative="1" as="geometry">
            <mxPoint x="729.1200000000001" y="2772.4" as="sourcePoint" />
            <mxPoint x="729.1200000000001" y="2814.4" as="targetPoint" />
          </mxGeometry>
        </mxCell>
        <mxCell id="hw-Cy0S7zGGRTdD7gFje-229" value="&lt;span style=&quot;font-size: 25px;&quot;&gt;使用者個案圖&lt;/span&gt;" style="text;html=1;align=center;verticalAlign=middle;whiteSpace=wrap;rounded=0;" vertex="1" parent="1">
          <mxGeometry x="360" y="880" width="183" height="30" as="geometry" />
        </mxCell>
        <mxCell id="hw-Cy0S7zGGRTdD7gFje-230" value="&lt;span style=&quot;font-size: 25px;&quot;&gt;使用者個案描述&lt;/span&gt;" style="text;html=1;align=center;verticalAlign=middle;whiteSpace=wrap;rounded=0;" vertex="1" parent="1">
          <mxGeometry x="354.93" y="1110" width="183" height="30" as="geometry" />
        </mxCell>
        <mxCell id="hw-Cy0S7zGGRTdD7gFje-231" value="" style="shape=link;html=1;rounded=0;" edge="1" parent="1">
          <mxGeometry width="100" relative="1" as="geometry">
            <mxPoint y="1040" as="sourcePoint" />
            <mxPoint x="1150" y="1040" as="targetPoint" />
          </mxGeometry>
        </mxCell>
        <mxCell id="hw-Cy0S7zGGRTdD7gFje-234" value="&lt;span style=&quot;font-size: 25px;&quot;&gt;搜尋房屋-房客&lt;/span&gt;" style="text;html=1;align=center;verticalAlign=middle;whiteSpace=wrap;rounded=0;" vertex="1" parent="1">
          <mxGeometry x="62.63" y="1754" width="183" height="30" as="geometry" />
        </mxCell>
        <mxCell id="hw-Cy0S7zGGRTdD7gFje-235" value="&lt;span style=&quot;font-size: 25px;&quot;&gt;登出&lt;/span&gt;" style="text;html=1;align=center;verticalAlign=middle;whiteSpace=wrap;rounded=0;" vertex="1" parent="1">
          <mxGeometry x="1248.44" y="4860" width="183" height="30" as="geometry" />
        </mxCell>
        <mxCell id="hw-Cy0S7zGGRTdD7gFje-239" value="&lt;span style=&quot;font-size: 25px;&quot;&gt;修改PO文-房東&lt;/span&gt;" style="text;html=1;align=center;verticalAlign=middle;whiteSpace=wrap;rounded=0;" vertex="1" parent="1">
          <mxGeometry x="638.21" y="3090" width="183" height="30" as="geometry" />
        </mxCell>
        <mxCell id="hw-Cy0S7zGGRTdD7gFje-240" value="" style="ellipse;html=1;shape=endState;fillColor=#000000;strokeColor=#ff0000;" vertex="1" parent="1">
          <mxGeometry x="176.96" y="3290" width="30" height="30" as="geometry" />
        </mxCell>
        <mxCell id="hw-Cy0S7zGGRTdD7gFje-241" style="edgeStyle=orthogonalEdgeStyle;rounded=0;orthogonalLoop=1;jettySize=auto;html=1;entryX=0.5;entryY=0;entryDx=0;entryDy=0;" edge="1" parent="1" target="hw-Cy0S7zGGRTdD7gFje-245">
          <mxGeometry relative="1" as="geometry">
            <mxPoint x="191.96" y="3380" as="sourcePoint" />
          </mxGeometry>
        </mxCell>
        <mxCell id="hw-Cy0S7zGGRTdD7gFje-242" style="edgeStyle=orthogonalEdgeStyle;rounded=0;orthogonalLoop=1;jettySize=auto;html=1;exitX=0.611;exitY=0.744;exitDx=0;exitDy=0;entryX=0.5;entryY=1;entryDx=0;entryDy=0;exitPerimeter=0;" edge="1" parent="1" source="hw-Cy0S7zGGRTdD7gFje-243" target="hw-Cy0S7zGGRTdD7gFje-240">
          <mxGeometry relative="1" as="geometry">
            <Array as="points">
              <mxPoint x="191.96" y="3382" />
            </Array>
          </mxGeometry>
        </mxCell>
        <mxCell id="hw-Cy0S7zGGRTdD7gFje-243" value="" style="ellipse;html=1;shape=startState;fillColor=#000000;strokeColor=#33001A;" vertex="1" parent="1">
          <mxGeometry x="176.96" y="3360" width="30" height="30" as="geometry" />
        </mxCell>
        <mxCell id="hw-Cy0S7zGGRTdD7gFje-244" style="edgeStyle=orthogonalEdgeStyle;rounded=0;orthogonalLoop=1;jettySize=auto;html=1;exitX=0.5;exitY=1;exitDx=0;exitDy=0;" edge="1" parent="1" source="hw-Cy0S7zGGRTdD7gFje-245" target="hw-Cy0S7zGGRTdD7gFje-247">
          <mxGeometry relative="1" as="geometry" />
        </mxCell>
        <mxCell id="hw-Cy0S7zGGRTdD7gFje-245" value="" style="rounded=1;whiteSpace=wrap;html=1;fillColor=#33001A;" vertex="1" parent="1">
          <mxGeometry x="138.21" y="3430" width="107.5" height="30" as="geometry" />
        </mxCell>
        <mxCell id="hw-Cy0S7zGGRTdD7gFje-246" style="edgeStyle=orthogonalEdgeStyle;rounded=0;orthogonalLoop=1;jettySize=auto;html=1;exitX=0.5;exitY=1;exitDx=0;exitDy=0;entryX=0.5;entryY=0;entryDx=0;entryDy=0;" edge="1" parent="1" source="hw-Cy0S7zGGRTdD7gFje-247" target="hw-Cy0S7zGGRTdD7gFje-257">
          <mxGeometry relative="1" as="geometry">
            <mxPoint x="228.21" y="3570" as="targetPoint" />
          </mxGeometry>
        </mxCell>
        <mxCell id="hw-Cy0S7zGGRTdD7gFje-247" value="登入" style="rounded=1;whiteSpace=wrap;html=1;" vertex="1" parent="1">
          <mxGeometry x="150.71" y="3500" width="82.5" height="40" as="geometry" />
        </mxCell>
        <mxCell id="hw-Cy0S7zGGRTdD7gFje-248" style="edgeStyle=orthogonalEdgeStyle;rounded=0;orthogonalLoop=1;jettySize=auto;html=1;exitX=0.5;exitY=1;exitDx=0;exitDy=0;entryX=0.5;entryY=0;entryDx=0;entryDy=0;" edge="1" parent="1" source="hw-Cy0S7zGGRTdD7gFje-249">
          <mxGeometry relative="1" as="geometry">
            <mxPoint x="191.96000000000004" y="3740" as="targetPoint" />
          </mxGeometry>
        </mxCell>
        <mxCell id="hw-Cy0S7zGGRTdD7gFje-249" value="是否正確" style="rounded=1;whiteSpace=wrap;html=1;" vertex="1" parent="1">
          <mxGeometry x="150.71" y="3660" width="82.5" height="40" as="geometry" />
        </mxCell>
        <mxCell id="hw-Cy0S7zGGRTdD7gFje-250" style="edgeStyle=orthogonalEdgeStyle;rounded=0;orthogonalLoop=1;jettySize=auto;html=1;exitX=0.5;exitY=1;exitDx=0;exitDy=0;entryX=0.5;entryY=0;entryDx=0;entryDy=0;" edge="1" parent="1" source="hw-Cy0S7zGGRTdD7gFje-254" target="hw-Cy0S7zGGRTdD7gFje-255">
          <mxGeometry relative="1" as="geometry">
            <mxPoint x="191.46" y="3890" as="targetPoint" />
          </mxGeometry>
        </mxCell>
        <mxCell id="hw-Cy0S7zGGRTdD7gFje-251" value="無錯誤" style="edgeLabel;html=1;align=center;verticalAlign=middle;resizable=0;points=[];" connectable="0" vertex="1" parent="hw-Cy0S7zGGRTdD7gFje-250">
          <mxGeometry x="-0.4667" y="1" relative="1" as="geometry">
            <mxPoint as="offset" />
          </mxGeometry>
        </mxCell>
        <mxCell id="hw-Cy0S7zGGRTdD7gFje-254" value="" style="rhombus;whiteSpace=wrap;html=1;" vertex="1" parent="1">
          <mxGeometry x="178.2100000000001" y="3740" width="28.75" height="30" as="geometry" />
        </mxCell>
        <mxCell id="hw-Cy0S7zGGRTdD7gFje-255" value="審核通過" style="rounded=1;whiteSpace=wrap;html=1;" vertex="1" parent="1">
          <mxGeometry x="150.71" y="3820" width="82.5" height="40" as="geometry" />
        </mxCell>
        <mxCell id="hw-Cy0S7zGGRTdD7gFje-256" style="edgeStyle=orthogonalEdgeStyle;rounded=0;orthogonalLoop=1;jettySize=auto;html=1;exitX=0.5;exitY=1;exitDx=0;exitDy=0;entryX=0.5;entryY=0;entryDx=0;entryDy=0;" edge="1" parent="1" source="hw-Cy0S7zGGRTdD7gFje-257" target="hw-Cy0S7zGGRTdD7gFje-249">
          <mxGeometry relative="1" as="geometry" />
        </mxCell>
        <mxCell id="hw-Cy0S7zGGRTdD7gFje-257" value="查看房東待審核之出租資料" style="rounded=1;whiteSpace=wrap;html=1;" vertex="1" parent="1">
          <mxGeometry x="150.71" y="3579" width="82.5" height="40" as="geometry" />
        </mxCell>
        <mxCell id="hw-Cy0S7zGGRTdD7gFje-258" style="edgeStyle=orthogonalEdgeStyle;rounded=0;orthogonalLoop=1;jettySize=auto;html=1;exitX=0;exitY=0.5;exitDx=0;exitDy=0;" edge="1" parent="1" source="hw-Cy0S7zGGRTdD7gFje-255">
          <mxGeometry relative="1" as="geometry">
            <mxPoint x="179.46" y="3375" as="targetPoint" />
            <Array as="points">
              <mxPoint x="92" y="3840" />
              <mxPoint x="92" y="3375" />
            </Array>
            <mxPoint x="109.50000000000004" y="4025" as="sourcePoint" />
          </mxGeometry>
        </mxCell>
        <mxCell id="hw-Cy0S7zGGRTdD7gFje-261" value="&lt;span style=&quot;font-size: 25px;&quot;&gt;審核PO文-管理員&lt;/span&gt;" style="text;html=1;align=center;verticalAlign=middle;whiteSpace=wrap;rounded=0;" vertex="1" parent="1">
          <mxGeometry x="109.00999999999999" y="3920" width="197.04" height="30" as="geometry" />
        </mxCell>
        <mxCell id="hw-Cy0S7zGGRTdD7gFje-273" style="edgeStyle=orthogonalEdgeStyle;rounded=0;orthogonalLoop=1;jettySize=auto;html=1;exitX=1;exitY=0.5;exitDx=0;exitDy=0;entryX=0;entryY=0.5;entryDx=0;entryDy=0;" edge="1" parent="1" source="hw-Cy0S7zGGRTdD7gFje-264" target="hw-Cy0S7zGGRTdD7gFje-271">
          <mxGeometry relative="1" as="geometry" />
        </mxCell>
        <mxCell id="hw-Cy0S7zGGRTdD7gFje-264" value="退回給房東" style="rounded=1;whiteSpace=wrap;html=1;" vertex="1" parent="1">
          <mxGeometry x="272.43" y="3735" width="82.5" height="40" as="geometry" />
        </mxCell>
        <mxCell id="hw-Cy0S7zGGRTdD7gFje-267" style="edgeStyle=orthogonalEdgeStyle;rounded=0;orthogonalLoop=1;jettySize=auto;html=1;exitX=1;exitY=0.5;exitDx=0;exitDy=0;entryX=0;entryY=0.5;entryDx=0;entryDy=0;" edge="1" parent="1" source="hw-Cy0S7zGGRTdD7gFje-254" target="hw-Cy0S7zGGRTdD7gFje-264">
          <mxGeometry relative="1" as="geometry">
            <mxPoint x="272.43" y="3840" as="targetPoint" />
            <mxPoint x="273.43" y="3770" as="sourcePoint" />
          </mxGeometry>
        </mxCell>
        <mxCell id="hw-Cy0S7zGGRTdD7gFje-268" value="有錯誤" style="edgeLabel;html=1;align=center;verticalAlign=middle;resizable=0;points=[];" connectable="0" vertex="1" parent="hw-Cy0S7zGGRTdD7gFje-267">
          <mxGeometry x="-0.4667" y="1" relative="1" as="geometry">
            <mxPoint as="offset" />
          </mxGeometry>
        </mxCell>
        <mxCell id="hw-Cy0S7zGGRTdD7gFje-276" style="edgeStyle=orthogonalEdgeStyle;rounded=0;orthogonalLoop=1;jettySize=auto;html=1;exitX=0.5;exitY=0;exitDx=0;exitDy=0;entryX=1;entryY=0.5;entryDx=0;entryDy=0;" edge="1" parent="1" source="hw-Cy0S7zGGRTdD7gFje-271" target="hw-Cy0S7zGGRTdD7gFje-249">
          <mxGeometry relative="1" as="geometry" />
        </mxCell>
        <mxCell id="hw-Cy0S7zGGRTdD7gFje-271" value="再次審核修改過後的資料" style="rounded=1;whiteSpace=wrap;html=1;" vertex="1" parent="1">
          <mxGeometry x="393.75" y="3735" width="82.5" height="40" as="geometry" />
        </mxCell>
        <mxCell id="hw-Cy0S7zGGRTdD7gFje-277" value="" style="ellipse;html=1;shape=endState;fillColor=#000000;strokeColor=#ff0000;" vertex="1" parent="1">
          <mxGeometry x="146.5" y="4350" width="30" height="30" as="geometry" />
        </mxCell>
        <mxCell id="hw-Cy0S7zGGRTdD7gFje-278" style="edgeStyle=orthogonalEdgeStyle;rounded=0;orthogonalLoop=1;jettySize=auto;html=1;entryX=0.5;entryY=0;entryDx=0;entryDy=0;" edge="1" parent="1" target="hw-Cy0S7zGGRTdD7gFje-282">
          <mxGeometry relative="1" as="geometry">
            <mxPoint x="161.5" y="4440" as="sourcePoint" />
          </mxGeometry>
        </mxCell>
        <mxCell id="hw-Cy0S7zGGRTdD7gFje-279" style="edgeStyle=orthogonalEdgeStyle;rounded=0;orthogonalLoop=1;jettySize=auto;html=1;exitX=0.611;exitY=0.744;exitDx=0;exitDy=0;entryX=0.5;entryY=1;entryDx=0;entryDy=0;exitPerimeter=0;" edge="1" parent="1" source="hw-Cy0S7zGGRTdD7gFje-280" target="hw-Cy0S7zGGRTdD7gFje-277">
          <mxGeometry relative="1" as="geometry">
            <Array as="points">
              <mxPoint x="161.5" y="4442" />
            </Array>
          </mxGeometry>
        </mxCell>
        <mxCell id="hw-Cy0S7zGGRTdD7gFje-280" value="" style="ellipse;html=1;shape=startState;fillColor=#000000;strokeColor=#33001A;" vertex="1" parent="1">
          <mxGeometry x="146.5" y="4420" width="30" height="30" as="geometry" />
        </mxCell>
        <mxCell id="hw-Cy0S7zGGRTdD7gFje-281" style="edgeStyle=orthogonalEdgeStyle;rounded=0;orthogonalLoop=1;jettySize=auto;html=1;exitX=0.5;exitY=1;exitDx=0;exitDy=0;" edge="1" parent="1" source="hw-Cy0S7zGGRTdD7gFje-282">
          <mxGeometry relative="1" as="geometry">
            <mxPoint x="161.51470588235316" y="4560" as="targetPoint" />
          </mxGeometry>
        </mxCell>
        <mxCell id="hw-Cy0S7zGGRTdD7gFje-282" value="" style="rounded=1;whiteSpace=wrap;html=1;fillColor=#33001A;" vertex="1" parent="1">
          <mxGeometry x="107.74999999999989" y="4490" width="107.5" height="30" as="geometry" />
        </mxCell>
        <mxCell id="hw-Cy0S7zGGRTdD7gFje-288" style="edgeStyle=orthogonalEdgeStyle;rounded=0;orthogonalLoop=1;jettySize=auto;html=1;exitX=0;exitY=0.5;exitDx=0;exitDy=0;entryX=0;entryY=0.5;entryDx=0;entryDy=0;" edge="1" parent="1" target="hw-Cy0S7zGGRTdD7gFje-280">
          <mxGeometry relative="1" as="geometry">
            <mxPoint x="147.75" y="4435" as="targetPoint" />
            <Array as="points">
              <mxPoint x="120" y="4810" />
              <mxPoint x="88" y="4810" />
              <mxPoint x="88" y="4435" />
            </Array>
            <mxPoint x="120.25" y="4820" as="sourcePoint" />
          </mxGeometry>
        </mxCell>
        <mxCell id="hw-Cy0S7zGGRTdD7gFje-291" value="&lt;span style=&quot;font-size: 25px;&quot;&gt;註冊&lt;/span&gt;" style="text;html=1;align=center;verticalAlign=middle;whiteSpace=wrap;rounded=0;" vertex="1" parent="1">
          <mxGeometry x="69.99999999999989" y="4890" width="183" height="30" as="geometry" />
        </mxCell>
        <mxCell id="hw-Cy0S7zGGRTdD7gFje-294" style="edgeStyle=orthogonalEdgeStyle;rounded=0;orthogonalLoop=1;jettySize=auto;html=1;exitX=0.5;exitY=1;exitDx=0;exitDy=0;entryX=0.5;entryY=0;entryDx=0;entryDy=0;" edge="1" parent="1" source="hw-Cy0S7zGGRTdD7gFje-292" target="hw-Cy0S7zGGRTdD7gFje-293">
          <mxGeometry relative="1" as="geometry" />
        </mxCell>
        <mxCell id="hw-Cy0S7zGGRTdD7gFje-295" value="無帳號" style="edgeLabel;html=1;align=center;verticalAlign=middle;resizable=0;points=[];" connectable="0" vertex="1" parent="hw-Cy0S7zGGRTdD7gFje-294">
          <mxGeometry x="-0.2274" relative="1" as="geometry">
            <mxPoint as="offset" />
          </mxGeometry>
        </mxCell>
        <mxCell id="hw-Cy0S7zGGRTdD7gFje-305" style="edgeStyle=orthogonalEdgeStyle;rounded=0;orthogonalLoop=1;jettySize=auto;html=1;exitX=1;exitY=0.5;exitDx=0;exitDy=0;entryX=0.5;entryY=0;entryDx=0;entryDy=0;" edge="1" parent="1" source="hw-Cy0S7zGGRTdD7gFje-292" target="hw-Cy0S7zGGRTdD7gFje-302">
          <mxGeometry relative="1" as="geometry" />
        </mxCell>
        <mxCell id="hw-Cy0S7zGGRTdD7gFje-306" value="有帳號" style="edgeLabel;html=1;align=center;verticalAlign=middle;resizable=0;points=[];" connectable="0" vertex="1" parent="hw-Cy0S7zGGRTdD7gFje-305">
          <mxGeometry x="-0.4288" y="1" relative="1" as="geometry">
            <mxPoint x="-1" as="offset" />
          </mxGeometry>
        </mxCell>
        <mxCell id="hw-Cy0S7zGGRTdD7gFje-292" value="" style="rhombus;whiteSpace=wrap;html=1;" vertex="1" parent="1">
          <mxGeometry x="147.12999999999994" y="4560" width="28.75" height="30" as="geometry" />
        </mxCell>
        <mxCell id="hw-Cy0S7zGGRTdD7gFje-299" style="edgeStyle=orthogonalEdgeStyle;rounded=0;orthogonalLoop=1;jettySize=auto;html=1;exitX=0.5;exitY=1;exitDx=0;exitDy=0;entryX=0.5;entryY=0;entryDx=0;entryDy=0;" edge="1" parent="1" source="hw-Cy0S7zGGRTdD7gFje-293" target="hw-Cy0S7zGGRTdD7gFje-296">
          <mxGeometry relative="1" as="geometry" />
        </mxCell>
        <mxCell id="hw-Cy0S7zGGRTdD7gFje-293" value="註冊" style="rounded=1;whiteSpace=wrap;html=1;" vertex="1" parent="1">
          <mxGeometry x="120.24999999999993" y="4630" width="82.5" height="40" as="geometry" />
        </mxCell>
        <mxCell id="hw-Cy0S7zGGRTdD7gFje-304" style="edgeStyle=orthogonalEdgeStyle;rounded=0;orthogonalLoop=1;jettySize=auto;html=1;exitX=1;exitY=0.5;exitDx=0;exitDy=0;entryX=0;entryY=0.5;entryDx=0;entryDy=0;" edge="1" parent="1" source="hw-Cy0S7zGGRTdD7gFje-296" target="hw-Cy0S7zGGRTdD7gFje-302">
          <mxGeometry relative="1" as="geometry" />
        </mxCell>
        <mxCell id="hw-Cy0S7zGGRTdD7gFje-307" value="成功" style="edgeLabel;html=1;align=center;verticalAlign=middle;resizable=0;points=[];" connectable="0" vertex="1" parent="hw-Cy0S7zGGRTdD7gFje-304">
          <mxGeometry x="-0.3628" y="-1" relative="1" as="geometry">
            <mxPoint as="offset" />
          </mxGeometry>
        </mxCell>
        <mxCell id="hw-Cy0S7zGGRTdD7gFje-296" value="" style="rhombus;whiteSpace=wrap;html=1;" vertex="1" parent="1">
          <mxGeometry x="146.49999999999994" y="4711" width="28.75" height="30" as="geometry" />
        </mxCell>
        <mxCell id="hw-Cy0S7zGGRTdD7gFje-300" style="edgeStyle=orthogonalEdgeStyle;rounded=0;orthogonalLoop=1;jettySize=auto;html=1;exitX=0.5;exitY=1;exitDx=0;exitDy=0;entryX=0.5;entryY=0;entryDx=0;entryDy=0;" edge="1" parent="1" source="hw-Cy0S7zGGRTdD7gFje-296" target="hw-Cy0S7zGGRTdD7gFje-308">
          <mxGeometry relative="1" as="geometry">
            <mxPoint x="159.38" y="4740" as="sourcePoint" />
            <mxPoint x="159.38" y="4781" as="targetPoint" />
          </mxGeometry>
        </mxCell>
        <mxCell id="hw-Cy0S7zGGRTdD7gFje-301" value="失敗" style="edgeLabel;html=1;align=center;verticalAlign=middle;resizable=0;points=[];" connectable="0" vertex="1" parent="hw-Cy0S7zGGRTdD7gFje-300">
          <mxGeometry x="-0.3027" y="1" relative="1" as="geometry">
            <mxPoint as="offset" />
          </mxGeometry>
        </mxCell>
        <mxCell id="hw-Cy0S7zGGRTdD7gFje-309" style="edgeStyle=orthogonalEdgeStyle;rounded=0;orthogonalLoop=1;jettySize=auto;html=1;exitX=1;exitY=0.5;exitDx=0;exitDy=0;entryX=1;entryY=0.5;entryDx=0;entryDy=0;" edge="1" parent="1" source="hw-Cy0S7zGGRTdD7gFje-302" target="hw-Cy0S7zGGRTdD7gFje-280">
          <mxGeometry relative="1" as="geometry" />
        </mxCell>
        <mxCell id="hw-Cy0S7zGGRTdD7gFje-302" value="登入" style="rounded=1;whiteSpace=wrap;html=1;" vertex="1" parent="1">
          <mxGeometry x="252.99999999999994" y="4706" width="82.5" height="40" as="geometry" />
        </mxCell>
        <mxCell id="hw-Cy0S7zGGRTdD7gFje-308" value="錯誤訊息" style="rounded=1;whiteSpace=wrap;html=1;" vertex="1" parent="1">
          <mxGeometry x="120.24999999999994" y="4790" width="82.5" height="40" as="geometry" />
        </mxCell>
        <mxCell id="hw-Cy0S7zGGRTdD7gFje-310" value="" style="ellipse;html=1;shape=endState;fillColor=#000000;strokeColor=#ff0000;" vertex="1" parent="1">
          <mxGeometry x="641.09" y="4350" width="30" height="30" as="geometry" />
        </mxCell>
        <mxCell id="hw-Cy0S7zGGRTdD7gFje-311" style="edgeStyle=orthogonalEdgeStyle;rounded=0;orthogonalLoop=1;jettySize=auto;html=1;entryX=0.5;entryY=0;entryDx=0;entryDy=0;" edge="1" parent="1" target="hw-Cy0S7zGGRTdD7gFje-315">
          <mxGeometry relative="1" as="geometry">
            <mxPoint x="656.09" y="4440" as="sourcePoint" />
          </mxGeometry>
        </mxCell>
        <mxCell id="hw-Cy0S7zGGRTdD7gFje-312" style="edgeStyle=orthogonalEdgeStyle;rounded=0;orthogonalLoop=1;jettySize=auto;html=1;exitX=0.611;exitY=0.744;exitDx=0;exitDy=0;entryX=0.5;entryY=1;entryDx=0;entryDy=0;exitPerimeter=0;" edge="1" parent="1" source="hw-Cy0S7zGGRTdD7gFje-313" target="hw-Cy0S7zGGRTdD7gFje-310">
          <mxGeometry relative="1" as="geometry">
            <Array as="points">
              <mxPoint x="656.09" y="4442" />
            </Array>
          </mxGeometry>
        </mxCell>
        <mxCell id="hw-Cy0S7zGGRTdD7gFje-313" value="" style="ellipse;html=1;shape=startState;fillColor=#000000;strokeColor=#33001A;" vertex="1" parent="1">
          <mxGeometry x="641.09" y="4420" width="30" height="30" as="geometry" />
        </mxCell>
        <mxCell id="hw-Cy0S7zGGRTdD7gFje-314" style="edgeStyle=orthogonalEdgeStyle;rounded=0;orthogonalLoop=1;jettySize=auto;html=1;exitX=0.5;exitY=1;exitDx=0;exitDy=0;" edge="1" parent="1" source="hw-Cy0S7zGGRTdD7gFje-315">
          <mxGeometry relative="1" as="geometry">
            <mxPoint x="656.1047058823532" y="4560" as="targetPoint" />
          </mxGeometry>
        </mxCell>
        <mxCell id="hw-Cy0S7zGGRTdD7gFje-315" value="" style="rounded=1;whiteSpace=wrap;html=1;fillColor=#33001A;" vertex="1" parent="1">
          <mxGeometry x="602.3399999999998" y="4490" width="107.5" height="30" as="geometry" />
        </mxCell>
        <mxCell id="hw-Cy0S7zGGRTdD7gFje-317" value="&lt;span style=&quot;font-size: 25px;&quot;&gt;登入&lt;/span&gt;" style="text;html=1;align=center;verticalAlign=middle;whiteSpace=wrap;rounded=0;" vertex="1" parent="1">
          <mxGeometry x="602.34" y="4761" width="75.41" height="30" as="geometry" />
        </mxCell>
        <mxCell id="hw-Cy0S7zGGRTdD7gFje-318" style="edgeStyle=orthogonalEdgeStyle;rounded=0;orthogonalLoop=1;jettySize=auto;html=1;exitX=0.5;exitY=1;exitDx=0;exitDy=0;entryX=0.5;entryY=0;entryDx=0;entryDy=0;" edge="1" parent="1" source="hw-Cy0S7zGGRTdD7gFje-322" target="hw-Cy0S7zGGRTdD7gFje-324">
          <mxGeometry relative="1" as="geometry" />
        </mxCell>
        <mxCell id="hw-Cy0S7zGGRTdD7gFje-319" value="登入成功" style="edgeLabel;html=1;align=center;verticalAlign=middle;resizable=0;points=[];" connectable="0" vertex="1" parent="hw-Cy0S7zGGRTdD7gFje-318">
          <mxGeometry x="-0.2274" relative="1" as="geometry">
            <mxPoint as="offset" />
          </mxGeometry>
        </mxCell>
        <mxCell id="hw-Cy0S7zGGRTdD7gFje-320" style="edgeStyle=orthogonalEdgeStyle;rounded=0;orthogonalLoop=1;jettySize=auto;html=1;exitX=1;exitY=0.5;exitDx=0;exitDy=0;entryX=1;entryY=0.5;entryDx=0;entryDy=0;" edge="1" parent="1" source="hw-Cy0S7zGGRTdD7gFje-322" target="hw-Cy0S7zGGRTdD7gFje-313">
          <mxGeometry relative="1" as="geometry">
            <Array as="points">
              <mxPoint x="770" y="4575" />
              <mxPoint x="770" y="4435" />
            </Array>
          </mxGeometry>
        </mxCell>
        <mxCell id="hw-Cy0S7zGGRTdD7gFje-321" value="登入失敗" style="edgeLabel;html=1;align=center;verticalAlign=middle;resizable=0;points=[];" connectable="0" vertex="1" parent="hw-Cy0S7zGGRTdD7gFje-320">
          <mxGeometry x="-0.4288" y="1" relative="1" as="geometry">
            <mxPoint x="-1" as="offset" />
          </mxGeometry>
        </mxCell>
        <mxCell id="hw-Cy0S7zGGRTdD7gFje-322" value="" style="rhombus;whiteSpace=wrap;html=1;" vertex="1" parent="1">
          <mxGeometry x="641.7199999999999" y="4560" width="28.75" height="30" as="geometry" />
        </mxCell>
        <mxCell id="hw-Cy0S7zGGRTdD7gFje-323" style="edgeStyle=orthogonalEdgeStyle;rounded=0;orthogonalLoop=1;jettySize=auto;html=1;exitX=0.5;exitY=1;exitDx=0;exitDy=0;entryX=0.5;entryY=0;entryDx=0;entryDy=0;" edge="1" parent="1" source="hw-Cy0S7zGGRTdD7gFje-324" target="hw-Cy0S7zGGRTdD7gFje-332">
          <mxGeometry relative="1" as="geometry">
            <mxPoint x="655.4650000000001" y="4711" as="targetPoint" />
          </mxGeometry>
        </mxCell>
        <mxCell id="hw-Cy0S7zGGRTdD7gFje-324" value="登入" style="rounded=1;whiteSpace=wrap;html=1;" vertex="1" parent="1">
          <mxGeometry x="614.84" y="4630" width="82.5" height="40" as="geometry" />
        </mxCell>
        <mxCell id="hw-Cy0S7zGGRTdD7gFje-337" style="edgeStyle=orthogonalEdgeStyle;rounded=0;orthogonalLoop=1;jettySize=auto;html=1;exitX=0;exitY=0.5;exitDx=0;exitDy=0;entryX=0;entryY=0.5;entryDx=0;entryDy=0;" edge="1" parent="1" source="hw-Cy0S7zGGRTdD7gFje-332" target="hw-Cy0S7zGGRTdD7gFje-313">
          <mxGeometry relative="1" as="geometry">
            <Array as="points">
              <mxPoint x="475" y="4721" />
              <mxPoint x="475" y="4435" />
            </Array>
            <mxPoint x="580" y="4390" as="targetPoint" />
          </mxGeometry>
        </mxCell>
        <mxCell id="hw-Cy0S7zGGRTdD7gFje-332" value="登入成功訊息並進入頁面" style="rounded=1;whiteSpace=wrap;html=1;" vertex="1" parent="1">
          <mxGeometry x="614.84" y="4701" width="82.5" height="40" as="geometry" />
        </mxCell>
        <mxCell id="ytusaP-ryzODyK1H7M8E-34" value="" style="ellipse;html=1;shape=endState;fillColor=#000000;strokeColor=#ff0000;" vertex="1" parent="1">
          <mxGeometry x="1026.0900000000001" y="4340" width="30" height="30" as="geometry" />
        </mxCell>
        <mxCell id="ytusaP-ryzODyK1H7M8E-35" style="edgeStyle=orthogonalEdgeStyle;rounded=0;orthogonalLoop=1;jettySize=auto;html=1;entryX=0.5;entryY=0;entryDx=0;entryDy=0;" edge="1" parent="1" target="ytusaP-ryzODyK1H7M8E-39">
          <mxGeometry relative="1" as="geometry">
            <mxPoint x="1041.0900000000001" y="4430" as="sourcePoint" />
          </mxGeometry>
        </mxCell>
        <mxCell id="ytusaP-ryzODyK1H7M8E-36" style="edgeStyle=orthogonalEdgeStyle;rounded=0;orthogonalLoop=1;jettySize=auto;html=1;exitX=0.611;exitY=0.744;exitDx=0;exitDy=0;entryX=0.5;entryY=1;entryDx=0;entryDy=0;exitPerimeter=0;" edge="1" parent="1" source="ytusaP-ryzODyK1H7M8E-37" target="ytusaP-ryzODyK1H7M8E-34">
          <mxGeometry relative="1" as="geometry">
            <Array as="points">
              <mxPoint x="1041.0900000000001" y="4432" />
            </Array>
          </mxGeometry>
        </mxCell>
        <mxCell id="ytusaP-ryzODyK1H7M8E-37" value="" style="ellipse;html=1;shape=startState;fillColor=#000000;strokeColor=#33001A;" vertex="1" parent="1">
          <mxGeometry x="1026.0900000000001" y="4410" width="30" height="30" as="geometry" />
        </mxCell>
        <mxCell id="ytusaP-ryzODyK1H7M8E-38" style="edgeStyle=orthogonalEdgeStyle;rounded=0;orthogonalLoop=1;jettySize=auto;html=1;exitX=0.5;exitY=1;exitDx=0;exitDy=0;" edge="1" parent="1" source="ytusaP-ryzODyK1H7M8E-39">
          <mxGeometry relative="1" as="geometry">
            <mxPoint x="1041.1047058823533" y="4550" as="targetPoint" />
          </mxGeometry>
        </mxCell>
        <mxCell id="ytusaP-ryzODyK1H7M8E-39" value="" style="rounded=1;whiteSpace=wrap;html=1;fillColor=#33001A;" vertex="1" parent="1">
          <mxGeometry x="987.3399999999998" y="4480" width="107.5" height="30" as="geometry" />
        </mxCell>
        <mxCell id="ytusaP-ryzODyK1H7M8E-40" value="&lt;span style=&quot;font-size: 25px;&quot;&gt;忘記密碼&lt;/span&gt;" style="text;html=1;align=center;verticalAlign=middle;whiteSpace=wrap;rounded=0;" vertex="1" parent="1">
          <mxGeometry x="956.25" y="4760" width="121.31" height="30" as="geometry" />
        </mxCell>
        <mxCell id="ytusaP-ryzODyK1H7M8E-48" style="edgeStyle=orthogonalEdgeStyle;rounded=0;orthogonalLoop=1;jettySize=auto;html=1;exitX=0;exitY=0.5;exitDx=0;exitDy=0;entryX=0;entryY=0.5;entryDx=0;entryDy=0;" edge="1" parent="1" target="ytusaP-ryzODyK1H7M8E-37">
          <mxGeometry relative="1" as="geometry">
            <Array as="points">
              <mxPoint x="860" y="4711" />
              <mxPoint x="860" y="4425" />
            </Array>
            <mxPoint x="965" y="4380" as="targetPoint" />
            <mxPoint x="999.8400000000001" y="4711" as="sourcePoint" />
          </mxGeometry>
        </mxCell>
        <mxCell id="ytusaP-ryzODyK1H7M8E-52" style="edgeStyle=orthogonalEdgeStyle;rounded=0;orthogonalLoop=1;jettySize=auto;html=1;entryX=0.5;entryY=0;entryDx=0;entryDy=0;" edge="1" parent="1" source="ytusaP-ryzODyK1H7M8E-50" target="ytusaP-ryzODyK1H7M8E-51">
          <mxGeometry relative="1" as="geometry" />
        </mxCell>
        <mxCell id="ytusaP-ryzODyK1H7M8E-50" value="登入失敗或點擊忘記密碼" style="rounded=1;whiteSpace=wrap;html=1;" vertex="1" parent="1">
          <mxGeometry x="995.06" y="4555" width="90" height="40" as="geometry" />
        </mxCell>
        <mxCell id="ytusaP-ryzODyK1H7M8E-53" style="edgeStyle=orthogonalEdgeStyle;rounded=0;orthogonalLoop=1;jettySize=auto;html=1;" edge="1" parent="1" source="ytusaP-ryzODyK1H7M8E-51" target="ytusaP-ryzODyK1H7M8E-54">
          <mxGeometry relative="1" as="geometry">
            <mxPoint x="1040.06" y="4720" as="targetPoint" />
          </mxGeometry>
        </mxCell>
        <mxCell id="ytusaP-ryzODyK1H7M8E-51" value="輸入驗證之Email信箱" style="rounded=1;whiteSpace=wrap;html=1;" vertex="1" parent="1">
          <mxGeometry x="1002.56" y="4620" width="75" height="40" as="geometry" />
        </mxCell>
        <mxCell id="ytusaP-ryzODyK1H7M8E-54" value="傳送密碼至Email信箱" style="rounded=1;whiteSpace=wrap;html=1;" vertex="1" parent="1">
          <mxGeometry x="1001.06" y="4690" width="80.06" height="40" as="geometry" />
        </mxCell>
        <mxCell id="Vvrnn_XJRDPYyNNGfjpP-4" style="rounded=0;orthogonalLoop=1;jettySize=auto;html=1;exitX=0.5;exitY=0;exitDx=0;exitDy=0;exitPerimeter=0;entryX=0.5;entryY=1;entryDx=0;entryDy=0;" edge="1" parent="1" source="hw-Cy0S7zGGRTdD7gFje-131" target="Vvrnn_XJRDPYyNNGfjpP-3">
          <mxGeometry relative="1" as="geometry" />
        </mxCell>
        <mxCell id="hw-Cy0S7zGGRTdD7gFje-131" value="管理員" style="shape=umlActor;verticalLabelPosition=bottom;verticalAlign=top;html=1;outlineConnect=0;" vertex="1" parent="1">
          <mxGeometry x="410" y="760" width="30" height="60" as="geometry" />
        </mxCell>
        <mxCell id="hw-Cy0S7zGGRTdD7gFje-134" value="" style="endArrow=classic;html=1;rounded=0;entryX=0.5;entryY=1;entryDx=0;entryDy=0;exitX=0.5;exitY=0;exitDx=0;exitDy=0;exitPerimeter=0;" edge="1" parent="1" source="hw-Cy0S7zGGRTdD7gFje-131" target="hw-Cy0S7zGGRTdD7gFje-132">
          <mxGeometry width="50" height="50" relative="1" as="geometry">
            <mxPoint x="340" y="775" as="sourcePoint" />
            <mxPoint x="390" y="725" as="targetPoint" />
          </mxGeometry>
        </mxCell>
        <mxCell id="hw-Cy0S7zGGRTdD7gFje-136" value="" style="endArrow=classic;html=1;rounded=0;entryX=0.5;entryY=1;entryDx=0;entryDy=0;exitX=0.5;exitY=0;exitDx=0;exitDy=0;exitPerimeter=0;" edge="1" parent="1" source="hw-Cy0S7zGGRTdD7gFje-131" target="hw-Cy0S7zGGRTdD7gFje-135">
          <mxGeometry width="50" height="50" relative="1" as="geometry">
            <mxPoint x="455" y="785" as="sourcePoint" />
            <mxPoint x="365" y="680" as="targetPoint" />
          </mxGeometry>
        </mxCell>
        <mxCell id="Vvrnn_XJRDPYyNNGfjpP-5" value="" style="ellipse;html=1;shape=endState;fillColor=#000000;strokeColor=#ff0000;" vertex="1" parent="1">
          <mxGeometry x="643.3" y="1180" width="30" height="30" as="geometry" />
        </mxCell>
        <mxCell id="Vvrnn_XJRDPYyNNGfjpP-6" style="edgeStyle=orthogonalEdgeStyle;rounded=0;orthogonalLoop=1;jettySize=auto;html=1;entryX=0.5;entryY=0;entryDx=0;entryDy=0;" edge="1" parent="1" target="Vvrnn_XJRDPYyNNGfjpP-10">
          <mxGeometry relative="1" as="geometry">
            <mxPoint x="658.3" y="1270" as="sourcePoint" />
          </mxGeometry>
        </mxCell>
        <mxCell id="Vvrnn_XJRDPYyNNGfjpP-7" style="edgeStyle=orthogonalEdgeStyle;rounded=0;orthogonalLoop=1;jettySize=auto;html=1;exitX=0.611;exitY=0.744;exitDx=0;exitDy=0;entryX=0.5;entryY=1;entryDx=0;entryDy=0;exitPerimeter=0;" edge="1" parent="1" source="Vvrnn_XJRDPYyNNGfjpP-8" target="Vvrnn_XJRDPYyNNGfjpP-5">
          <mxGeometry relative="1" as="geometry">
            <Array as="points">
              <mxPoint x="658.3" y="1272" />
            </Array>
          </mxGeometry>
        </mxCell>
        <mxCell id="Vvrnn_XJRDPYyNNGfjpP-8" value="" style="ellipse;html=1;shape=startState;fillColor=#000000;strokeColor=#33001A;" vertex="1" parent="1">
          <mxGeometry x="643.3" y="1250" width="30" height="30" as="geometry" />
        </mxCell>
        <mxCell id="Vvrnn_XJRDPYyNNGfjpP-9" style="edgeStyle=orthogonalEdgeStyle;rounded=0;orthogonalLoop=1;jettySize=auto;html=1;exitX=0.5;exitY=1;exitDx=0;exitDy=0;" edge="1" parent="1" source="Vvrnn_XJRDPYyNNGfjpP-10" target="Vvrnn_XJRDPYyNNGfjpP-12">
          <mxGeometry relative="1" as="geometry" />
        </mxCell>
        <mxCell id="Vvrnn_XJRDPYyNNGfjpP-10" value="" style="rounded=1;whiteSpace=wrap;html=1;fillColor=#33001A;" vertex="1" parent="1">
          <mxGeometry x="604.55" y="1320" width="107.5" height="30" as="geometry" />
        </mxCell>
        <mxCell id="Vvrnn_XJRDPYyNNGfjpP-11" style="edgeStyle=orthogonalEdgeStyle;rounded=0;orthogonalLoop=1;jettySize=auto;html=1;exitX=0.5;exitY=1;exitDx=0;exitDy=0;entryX=0.5;entryY=0;entryDx=0;entryDy=0;" edge="1" parent="1" source="Vvrnn_XJRDPYyNNGfjpP-12" target="Vvrnn_XJRDPYyNNGfjpP-23">
          <mxGeometry relative="1" as="geometry">
            <mxPoint x="694.55" y="1460" as="targetPoint" />
          </mxGeometry>
        </mxCell>
        <mxCell id="Vvrnn_XJRDPYyNNGfjpP-12" value="登入" style="rounded=1;whiteSpace=wrap;html=1;" vertex="1" parent="1">
          <mxGeometry x="617.05" y="1390" width="82.5" height="40" as="geometry" />
        </mxCell>
        <mxCell id="Vvrnn_XJRDPYyNNGfjpP-13" style="edgeStyle=orthogonalEdgeStyle;rounded=0;orthogonalLoop=1;jettySize=auto;html=1;exitX=0.5;exitY=1;exitDx=0;exitDy=0;entryX=0.5;entryY=0;entryDx=0;entryDy=0;" edge="1" parent="1" source="Vvrnn_XJRDPYyNNGfjpP-14" target="Vvrnn_XJRDPYyNNGfjpP-19">
          <mxGeometry relative="1" as="geometry" />
        </mxCell>
        <mxCell id="Vvrnn_XJRDPYyNNGfjpP-14" value="查看房屋資訊" style="rounded=1;whiteSpace=wrap;html=1;" vertex="1" parent="1">
          <mxGeometry x="617.05" y="1550" width="82.5" height="40" as="geometry" />
        </mxCell>
        <mxCell id="Vvrnn_XJRDPYyNNGfjpP-15" style="edgeStyle=orthogonalEdgeStyle;rounded=0;orthogonalLoop=1;jettySize=auto;html=1;exitX=0.5;exitY=1;exitDx=0;exitDy=0;entryX=0.5;entryY=0;entryDx=0;entryDy=0;" edge="1" parent="1" source="Vvrnn_XJRDPYyNNGfjpP-19" target="Vvrnn_XJRDPYyNNGfjpP-21">
          <mxGeometry relative="1" as="geometry" />
        </mxCell>
        <mxCell id="Vvrnn_XJRDPYyNNGfjpP-16" value="加入收藏" style="edgeLabel;html=1;align=center;verticalAlign=middle;resizable=0;points=[];" connectable="0" vertex="1" parent="Vvrnn_XJRDPYyNNGfjpP-15">
          <mxGeometry x="-0.4667" y="1" relative="1" as="geometry">
            <mxPoint as="offset" />
          </mxGeometry>
        </mxCell>
        <mxCell id="Vvrnn_XJRDPYyNNGfjpP-17" style="edgeStyle=orthogonalEdgeStyle;rounded=0;orthogonalLoop=1;jettySize=auto;html=1;exitX=1;exitY=0.5;exitDx=0;exitDy=0;entryX=1;entryY=0.5;entryDx=0;entryDy=0;" edge="1" parent="1" source="Vvrnn_XJRDPYyNNGfjpP-19" target="Vvrnn_XJRDPYyNNGfjpP-21">
          <mxGeometry relative="1" as="geometry">
            <mxPoint x="784.55" y="1645" as="targetPoint" />
            <Array as="points">
              <mxPoint x="714.55" y="1645" />
              <mxPoint x="714.55" y="1720" />
            </Array>
          </mxGeometry>
        </mxCell>
        <mxCell id="Vvrnn_XJRDPYyNNGfjpP-18" value="不收藏" style="edgeLabel;html=1;align=center;verticalAlign=middle;resizable=0;points=[];" connectable="0" vertex="1" parent="Vvrnn_XJRDPYyNNGfjpP-17">
          <mxGeometry x="-0.019" y="3" relative="1" as="geometry">
            <mxPoint as="offset" />
          </mxGeometry>
        </mxCell>
        <mxCell id="Vvrnn_XJRDPYyNNGfjpP-19" value="" style="rhombus;whiteSpace=wrap;html=1;" vertex="1" parent="1">
          <mxGeometry x="643.93" y="1630" width="28.75" height="30" as="geometry" />
        </mxCell>
        <mxCell id="Vvrnn_XJRDPYyNNGfjpP-20" style="edgeStyle=orthogonalEdgeStyle;rounded=0;orthogonalLoop=1;jettySize=auto;html=1;exitX=0.5;exitY=1;exitDx=0;exitDy=0;entryX=0.5;entryY=0;entryDx=0;entryDy=0;" edge="1" parent="1" source="Vvrnn_XJRDPYyNNGfjpP-21" target="Vvrnn_XJRDPYyNNGfjpP-29">
          <mxGeometry relative="1" as="geometry" />
        </mxCell>
        <mxCell id="Vvrnn_XJRDPYyNNGfjpP-21" value="查看我的收藏" style="rounded=1;whiteSpace=wrap;html=1;" vertex="1" parent="1">
          <mxGeometry x="617.05" y="1700" width="82.5" height="40" as="geometry" />
        </mxCell>
        <mxCell id="Vvrnn_XJRDPYyNNGfjpP-22" style="edgeStyle=orthogonalEdgeStyle;rounded=0;orthogonalLoop=1;jettySize=auto;html=1;exitX=0.5;exitY=1;exitDx=0;exitDy=0;entryX=0.5;entryY=0;entryDx=0;entryDy=0;" edge="1" parent="1" source="Vvrnn_XJRDPYyNNGfjpP-23" target="Vvrnn_XJRDPYyNNGfjpP-14">
          <mxGeometry relative="1" as="geometry" />
        </mxCell>
        <mxCell id="Vvrnn_XJRDPYyNNGfjpP-23" value="選擇房屋" style="rounded=1;whiteSpace=wrap;html=1;" vertex="1" parent="1">
          <mxGeometry x="617.05" y="1469" width="82.5" height="40" as="geometry" />
        </mxCell>
        <mxCell id="Vvrnn_XJRDPYyNNGfjpP-24" style="edgeStyle=orthogonalEdgeStyle;rounded=0;orthogonalLoop=1;jettySize=auto;html=1;exitX=0;exitY=0.5;exitDx=0;exitDy=0;entryX=0;entryY=0.5;entryDx=0;entryDy=0;" edge="1" parent="1" source="Vvrnn_XJRDPYyNNGfjpP-30" target="Vvrnn_XJRDPYyNNGfjpP-8">
          <mxGeometry relative="1" as="geometry">
            <mxPoint x="644.55" y="1265" as="targetPoint" />
            <Array as="points">
              <mxPoint x="585" y="1900" />
              <mxPoint x="585" y="1265" />
            </Array>
            <mxPoint x="617.05" y="1950" as="sourcePoint" />
          </mxGeometry>
        </mxCell>
        <mxCell id="Vvrnn_XJRDPYyNNGfjpP-25" style="edgeStyle=orthogonalEdgeStyle;rounded=0;orthogonalLoop=1;jettySize=auto;html=1;exitX=0.5;exitY=1;exitDx=0;exitDy=0;entryX=0.5;entryY=0;entryDx=0;entryDy=0;" edge="1" parent="1" source="Vvrnn_XJRDPYyNNGfjpP-29" target="Vvrnn_XJRDPYyNNGfjpP-30">
          <mxGeometry relative="1" as="geometry" />
        </mxCell>
        <mxCell id="Vvrnn_XJRDPYyNNGfjpP-26" value="刪除" style="edgeLabel;html=1;align=center;verticalAlign=middle;resizable=0;points=[];" connectable="0" vertex="1" parent="Vvrnn_XJRDPYyNNGfjpP-25">
          <mxGeometry x="-0.4667" y="1" relative="1" as="geometry">
            <mxPoint as="offset" />
          </mxGeometry>
        </mxCell>
        <mxCell id="Vvrnn_XJRDPYyNNGfjpP-27" style="edgeStyle=orthogonalEdgeStyle;rounded=0;orthogonalLoop=1;jettySize=auto;html=1;exitX=1;exitY=0.5;exitDx=0;exitDy=0;entryX=1;entryY=0.5;entryDx=0;entryDy=0;" edge="1" parent="1" source="Vvrnn_XJRDPYyNNGfjpP-29" target="Vvrnn_XJRDPYyNNGfjpP-21">
          <mxGeometry relative="1" as="geometry">
            <Array as="points">
              <mxPoint x="732.12" y="1799" />
              <mxPoint x="732.12" y="1720" />
            </Array>
          </mxGeometry>
        </mxCell>
        <mxCell id="Vvrnn_XJRDPYyNNGfjpP-28" value="不刪除" style="edgeLabel;html=1;align=center;verticalAlign=middle;resizable=0;points=[];" connectable="0" vertex="1" parent="Vvrnn_XJRDPYyNNGfjpP-27">
          <mxGeometry x="0.0324" y="-3" relative="1" as="geometry">
            <mxPoint as="offset" />
          </mxGeometry>
        </mxCell>
        <mxCell id="Vvrnn_XJRDPYyNNGfjpP-29" value="" style="rhombus;whiteSpace=wrap;html=1;" vertex="1" parent="1">
          <mxGeometry x="643.93" y="1784" width="28.75" height="30" as="geometry" />
        </mxCell>
        <mxCell id="Vvrnn_XJRDPYyNNGfjpP-30" value="查看更新後的收藏" style="rounded=1;whiteSpace=wrap;html=1;" vertex="1" parent="1">
          <mxGeometry x="617.05" y="1880" width="82.5" height="40" as="geometry" />
        </mxCell>
        <mxCell id="Vvrnn_XJRDPYyNNGfjpP-31" value="&lt;span style=&quot;font-size: 25px;&quot;&gt;收藏&amp;amp;刪除房屋-房客&lt;/span&gt;" style="text;html=1;align=center;verticalAlign=middle;whiteSpace=wrap;rounded=0;" vertex="1" parent="1">
          <mxGeometry x="550" y="1950" width="250" height="30" as="geometry" />
        </mxCell>
        <mxCell id="Vvrnn_XJRDPYyNNGfjpP-32" style="edgeStyle=orthogonalEdgeStyle;rounded=0;orthogonalLoop=1;jettySize=auto;html=1;entryX=0.5;entryY=0;entryDx=0;entryDy=0;" edge="1" parent="1" target="Vvrnn_XJRDPYyNNGfjpP-36">
          <mxGeometry relative="1" as="geometry">
            <mxPoint x="1091.86" y="1280" as="sourcePoint" />
          </mxGeometry>
        </mxCell>
        <mxCell id="Vvrnn_XJRDPYyNNGfjpP-33" style="edgeStyle=orthogonalEdgeStyle;rounded=0;orthogonalLoop=1;jettySize=auto;html=1;exitX=0.611;exitY=0.744;exitDx=0;exitDy=0;entryX=0.5;entryY=1;entryDx=0;entryDy=0;exitPerimeter=0;" edge="1" parent="1" source="Vvrnn_XJRDPYyNNGfjpP-34">
          <mxGeometry relative="1" as="geometry">
            <Array as="points">
              <mxPoint x="1091.86" y="1282" />
            </Array>
            <mxPoint x="1091.68" y="1220" as="targetPoint" />
          </mxGeometry>
        </mxCell>
        <mxCell id="Vvrnn_XJRDPYyNNGfjpP-34" value="" style="ellipse;html=1;shape=startState;fillColor=#000000;strokeColor=#33001A;" vertex="1" parent="1">
          <mxGeometry x="1076.86" y="1260" width="30" height="30" as="geometry" />
        </mxCell>
        <mxCell id="Vvrnn_XJRDPYyNNGfjpP-35" style="edgeStyle=orthogonalEdgeStyle;rounded=0;orthogonalLoop=1;jettySize=auto;html=1;exitX=0.5;exitY=1;exitDx=0;exitDy=0;" edge="1" parent="1" source="Vvrnn_XJRDPYyNNGfjpP-36" target="Vvrnn_XJRDPYyNNGfjpP-38">
          <mxGeometry relative="1" as="geometry" />
        </mxCell>
        <mxCell id="Vvrnn_XJRDPYyNNGfjpP-36" value="" style="rounded=1;whiteSpace=wrap;html=1;fillColor=#33001A;" vertex="1" parent="1">
          <mxGeometry x="1038.11" y="1330" width="107.5" height="30" as="geometry" />
        </mxCell>
        <mxCell id="Vvrnn_XJRDPYyNNGfjpP-37" style="edgeStyle=orthogonalEdgeStyle;rounded=0;orthogonalLoop=1;jettySize=auto;html=1;exitX=0.5;exitY=1;exitDx=0;exitDy=0;entryX=0.5;entryY=0;entryDx=0;entryDy=0;" edge="1" parent="1" source="Vvrnn_XJRDPYyNNGfjpP-38" target="Vvrnn_XJRDPYyNNGfjpP-47">
          <mxGeometry relative="1" as="geometry">
            <mxPoint x="1128.11" y="1470" as="targetPoint" />
          </mxGeometry>
        </mxCell>
        <mxCell id="Vvrnn_XJRDPYyNNGfjpP-38" value="登入" style="rounded=1;whiteSpace=wrap;html=1;" vertex="1" parent="1">
          <mxGeometry x="1050.61" y="1400" width="82.5" height="40" as="geometry" />
        </mxCell>
        <mxCell id="Vvrnn_XJRDPYyNNGfjpP-39" style="edgeStyle=orthogonalEdgeStyle;rounded=0;orthogonalLoop=1;jettySize=auto;html=1;exitX=0.5;exitY=1;exitDx=0;exitDy=0;entryX=0.5;entryY=0;entryDx=0;entryDy=0;" edge="1" parent="1" source="Vvrnn_XJRDPYyNNGfjpP-40" target="Vvrnn_XJRDPYyNNGfjpP-45">
          <mxGeometry relative="1" as="geometry" />
        </mxCell>
        <mxCell id="Vvrnn_XJRDPYyNNGfjpP-40" value="房東確認您為租屋房客" style="rounded=1;whiteSpace=wrap;html=1;" vertex="1" parent="1">
          <mxGeometry x="1050.61" y="1560" width="82.5" height="40" as="geometry" />
        </mxCell>
        <mxCell id="Vvrnn_XJRDPYyNNGfjpP-41" style="edgeStyle=orthogonalEdgeStyle;rounded=0;orthogonalLoop=1;jettySize=auto;html=1;exitX=0.5;exitY=1;exitDx=0;exitDy=0;entryX=0.5;entryY=0;entryDx=0;entryDy=0;" edge="1" parent="1" source="Vvrnn_XJRDPYyNNGfjpP-45">
          <mxGeometry relative="1" as="geometry">
            <mxPoint x="1091.8599999999997" y="1710" as="targetPoint" />
          </mxGeometry>
        </mxCell>
        <mxCell id="Vvrnn_XJRDPYyNNGfjpP-42" value="是" style="edgeLabel;html=1;align=center;verticalAlign=middle;resizable=0;points=[];" connectable="0" vertex="1" parent="Vvrnn_XJRDPYyNNGfjpP-41">
          <mxGeometry x="-0.4667" y="1" relative="1" as="geometry">
            <mxPoint as="offset" />
          </mxGeometry>
        </mxCell>
        <mxCell id="Vvrnn_XJRDPYyNNGfjpP-43" style="edgeStyle=orthogonalEdgeStyle;rounded=0;orthogonalLoop=1;jettySize=auto;html=1;exitX=1;exitY=0.5;exitDx=0;exitDy=0;entryX=1;entryY=0.5;entryDx=0;entryDy=0;" edge="1" parent="1" source="Vvrnn_XJRDPYyNNGfjpP-45" target="Vvrnn_XJRDPYyNNGfjpP-40">
          <mxGeometry relative="1" as="geometry">
            <mxPoint x="1133.1099999999997" y="1730" as="targetPoint" />
            <Array as="points">
              <mxPoint x="1100" y="1655" />
              <mxPoint x="1100" y="1660" />
              <mxPoint x="1170" y="1660" />
              <mxPoint x="1170" y="1580" />
            </Array>
          </mxGeometry>
        </mxCell>
        <mxCell id="Vvrnn_XJRDPYyNNGfjpP-44" value="否" style="edgeLabel;html=1;align=center;verticalAlign=middle;resizable=0;points=[];" connectable="0" vertex="1" parent="Vvrnn_XJRDPYyNNGfjpP-43">
          <mxGeometry x="-0.019" y="3" relative="1" as="geometry">
            <mxPoint as="offset" />
          </mxGeometry>
        </mxCell>
        <mxCell id="Vvrnn_XJRDPYyNNGfjpP-45" value="" style="rhombus;whiteSpace=wrap;html=1;" vertex="1" parent="1">
          <mxGeometry x="1077.49" y="1640" width="28.75" height="30" as="geometry" />
        </mxCell>
        <mxCell id="Vvrnn_XJRDPYyNNGfjpP-46" style="edgeStyle=orthogonalEdgeStyle;rounded=0;orthogonalLoop=1;jettySize=auto;html=1;exitX=0.5;exitY=1;exitDx=0;exitDy=0;entryX=0.5;entryY=0;entryDx=0;entryDy=0;" edge="1" parent="1" source="Vvrnn_XJRDPYyNNGfjpP-47" target="Vvrnn_XJRDPYyNNGfjpP-40">
          <mxGeometry relative="1" as="geometry" />
        </mxCell>
        <mxCell id="Vvrnn_XJRDPYyNNGfjpP-47" value="選擇欲評論的房屋" style="rounded=1;whiteSpace=wrap;html=1;" vertex="1" parent="1">
          <mxGeometry x="1050.61" y="1479" width="82.5" height="40" as="geometry" />
        </mxCell>
        <mxCell id="Vvrnn_XJRDPYyNNGfjpP-48" style="edgeStyle=orthogonalEdgeStyle;rounded=0;orthogonalLoop=1;jettySize=auto;html=1;exitX=0;exitY=0.25;exitDx=0;exitDy=0;entryX=0;entryY=0.5;entryDx=0;entryDy=0;" edge="1" parent="1" target="Vvrnn_XJRDPYyNNGfjpP-34">
          <mxGeometry relative="1" as="geometry">
            <mxPoint x="1078.11" y="1275" as="targetPoint" />
            <Array as="points">
              <mxPoint x="1051.11" y="1730" />
              <mxPoint x="1018.1099999999999" y="1730" />
              <mxPoint x="1018.1099999999999" y="1275" />
            </Array>
            <mxPoint x="1050.6099999999997" y="1720" as="sourcePoint" />
          </mxGeometry>
        </mxCell>
        <mxCell id="Vvrnn_XJRDPYyNNGfjpP-49" value="&lt;span style=&quot;font-size: 25px;&quot;&gt;撰寫評論及星數-房客&lt;/span&gt;" style="text;html=1;align=center;verticalAlign=middle;whiteSpace=wrap;rounded=0;" vertex="1" parent="1">
          <mxGeometry x="956.25" y="1860" width="253.75" height="30" as="geometry" />
        </mxCell>
        <mxCell id="Vvrnn_XJRDPYyNNGfjpP-50" value="" style="ellipse;html=1;shape=endState;fillColor=#000000;strokeColor=#ff0000;" vertex="1" parent="1">
          <mxGeometry x="1076.24" y="1190" width="30" height="30" as="geometry" />
        </mxCell>
        <mxCell id="Vvrnn_XJRDPYyNNGfjpP-51" value="撰寫評論及星數" style="rounded=1;whiteSpace=wrap;html=1;" vertex="1" parent="1">
          <mxGeometry x="1050.61" y="1714" width="82.5" height="40" as="geometry" />
        </mxCell>
        <mxCell id="Vvrnn_XJRDPYyNNGfjpP-52" style="edgeStyle=orthogonalEdgeStyle;rounded=0;orthogonalLoop=1;jettySize=auto;html=1;entryX=0.5;entryY=0;entryDx=0;entryDy=0;" edge="1" parent="1" target="Vvrnn_XJRDPYyNNGfjpP-56">
          <mxGeometry relative="1" as="geometry">
            <mxPoint x="1393.7599999999998" y="1270" as="sourcePoint" />
          </mxGeometry>
        </mxCell>
        <mxCell id="Vvrnn_XJRDPYyNNGfjpP-53" style="edgeStyle=orthogonalEdgeStyle;rounded=0;orthogonalLoop=1;jettySize=auto;html=1;exitX=0.611;exitY=0.744;exitDx=0;exitDy=0;entryX=0.5;entryY=1;entryDx=0;entryDy=0;exitPerimeter=0;" edge="1" parent="1" source="Vvrnn_XJRDPYyNNGfjpP-54">
          <mxGeometry relative="1" as="geometry">
            <Array as="points">
              <mxPoint x="1393.7599999999998" y="1272" />
            </Array>
            <mxPoint x="1393.58" y="1210" as="targetPoint" />
          </mxGeometry>
        </mxCell>
        <mxCell id="Vvrnn_XJRDPYyNNGfjpP-54" value="" style="ellipse;html=1;shape=startState;fillColor=#000000;strokeColor=#33001A;" vertex="1" parent="1">
          <mxGeometry x="1378.7599999999998" y="1250" width="30" height="30" as="geometry" />
        </mxCell>
        <mxCell id="Vvrnn_XJRDPYyNNGfjpP-55" style="edgeStyle=orthogonalEdgeStyle;rounded=0;orthogonalLoop=1;jettySize=auto;html=1;exitX=0.5;exitY=1;exitDx=0;exitDy=0;" edge="1" parent="1" source="Vvrnn_XJRDPYyNNGfjpP-56" target="Vvrnn_XJRDPYyNNGfjpP-58">
          <mxGeometry relative="1" as="geometry" />
        </mxCell>
        <mxCell id="Vvrnn_XJRDPYyNNGfjpP-56" value="" style="rounded=1;whiteSpace=wrap;html=1;fillColor=#33001A;" vertex="1" parent="1">
          <mxGeometry x="1340.0099999999998" y="1320" width="107.5" height="30" as="geometry" />
        </mxCell>
        <mxCell id="Vvrnn_XJRDPYyNNGfjpP-57" style="edgeStyle=orthogonalEdgeStyle;rounded=0;orthogonalLoop=1;jettySize=auto;html=1;exitX=0.5;exitY=1;exitDx=0;exitDy=0;entryX=0.5;entryY=0;entryDx=0;entryDy=0;" edge="1" parent="1" source="Vvrnn_XJRDPYyNNGfjpP-58" target="Vvrnn_XJRDPYyNNGfjpP-63">
          <mxGeometry relative="1" as="geometry">
            <mxPoint x="1430" y="1500" as="targetPoint" />
            <Array as="points">
              <mxPoint x="1394" y="1480" />
              <mxPoint x="1394" y="1480" />
            </Array>
          </mxGeometry>
        </mxCell>
        <mxCell id="Vvrnn_XJRDPYyNNGfjpP-58" value="登入" style="rounded=1;whiteSpace=wrap;html=1;" vertex="1" parent="1">
          <mxGeometry x="1352.5099999999998" y="1390" width="82.5" height="40" as="geometry" />
        </mxCell>
        <mxCell id="Vvrnn_XJRDPYyNNGfjpP-59" value="查看房屋評論及星數" style="rounded=1;whiteSpace=wrap;html=1;" vertex="1" parent="1">
          <mxGeometry x="1352.5099999999998" y="1570" width="82.5" height="40" as="geometry" />
        </mxCell>
        <mxCell id="Vvrnn_XJRDPYyNNGfjpP-60" style="edgeStyle=orthogonalEdgeStyle;rounded=0;orthogonalLoop=1;jettySize=auto;html=1;entryX=0;entryY=0.5;entryDx=0;entryDy=0;exitX=0;exitY=0.5;exitDx=0;exitDy=0;" edge="1" parent="1" source="Vvrnn_XJRDPYyNNGfjpP-59" target="Vvrnn_XJRDPYyNNGfjpP-54">
          <mxGeometry relative="1" as="geometry">
            <mxPoint x="1380.0099999999998" y="1265" as="targetPoint" />
            <Array as="points">
              <mxPoint x="1320" y="1590" />
              <mxPoint x="1320" y="1265" />
            </Array>
            <mxPoint x="1460" y="1720" as="sourcePoint" />
          </mxGeometry>
        </mxCell>
        <mxCell id="Vvrnn_XJRDPYyNNGfjpP-61" value="" style="ellipse;html=1;shape=endState;fillColor=#000000;strokeColor=#ff0000;" vertex="1" parent="1">
          <mxGeometry x="1378.1399999999999" y="1180" width="30" height="30" as="geometry" />
        </mxCell>
        <mxCell id="Vvrnn_XJRDPYyNNGfjpP-62" style="edgeStyle=orthogonalEdgeStyle;rounded=0;orthogonalLoop=1;jettySize=auto;html=1;exitX=0.5;exitY=1;exitDx=0;exitDy=0;entryX=0.5;entryY=0;entryDx=0;entryDy=0;" edge="1" parent="1" source="Vvrnn_XJRDPYyNNGfjpP-63" target="Vvrnn_XJRDPYyNNGfjpP-59">
          <mxGeometry relative="1" as="geometry" />
        </mxCell>
        <mxCell id="Vvrnn_XJRDPYyNNGfjpP-63" value="選擇房屋" style="rounded=1;whiteSpace=wrap;html=1;" vertex="1" parent="1">
          <mxGeometry x="1351.8899999999999" y="1479" width="82.5" height="40" as="geometry" />
        </mxCell>
        <mxCell id="Vvrnn_XJRDPYyNNGfjpP-64" value="&lt;span style=&quot;font-size: 25px;&quot;&gt;查看評論及星數-房客&lt;/span&gt;" style="text;html=1;align=center;verticalAlign=middle;whiteSpace=wrap;rounded=0;" vertex="1" parent="1">
          <mxGeometry x="1300" y="1684" width="253.75" height="30" as="geometry" />
        </mxCell>
        <mxCell id="Vvrnn_XJRDPYyNNGfjpP-65" value="" style="ellipse;html=1;shape=endState;fillColor=#000000;strokeColor=#ff0000;" vertex="1" parent="1">
          <mxGeometry x="176.88" y="2280" width="30" height="30" as="geometry" />
        </mxCell>
        <mxCell id="Vvrnn_XJRDPYyNNGfjpP-66" style="edgeStyle=orthogonalEdgeStyle;rounded=0;orthogonalLoop=1;jettySize=auto;html=1;entryX=0.5;entryY=0;entryDx=0;entryDy=0;" edge="1" parent="1" target="Vvrnn_XJRDPYyNNGfjpP-70">
          <mxGeometry relative="1" as="geometry">
            <mxPoint x="191.88" y="2370" as="sourcePoint" />
          </mxGeometry>
        </mxCell>
        <mxCell id="Vvrnn_XJRDPYyNNGfjpP-67" style="edgeStyle=orthogonalEdgeStyle;rounded=0;orthogonalLoop=1;jettySize=auto;html=1;exitX=0.611;exitY=0.744;exitDx=0;exitDy=0;entryX=0.5;entryY=1;entryDx=0;entryDy=0;exitPerimeter=0;" edge="1" parent="1" source="Vvrnn_XJRDPYyNNGfjpP-68" target="Vvrnn_XJRDPYyNNGfjpP-65">
          <mxGeometry relative="1" as="geometry">
            <Array as="points">
              <mxPoint x="191.88" y="2372" />
            </Array>
          </mxGeometry>
        </mxCell>
        <mxCell id="Vvrnn_XJRDPYyNNGfjpP-68" value="" style="ellipse;html=1;shape=startState;fillColor=#000000;strokeColor=#33001A;" vertex="1" parent="1">
          <mxGeometry x="176.88" y="2350" width="30" height="30" as="geometry" />
        </mxCell>
        <mxCell id="Vvrnn_XJRDPYyNNGfjpP-69" style="edgeStyle=orthogonalEdgeStyle;rounded=0;orthogonalLoop=1;jettySize=auto;html=1;exitX=0.5;exitY=1;exitDx=0;exitDy=0;" edge="1" parent="1" source="Vvrnn_XJRDPYyNNGfjpP-70" target="Vvrnn_XJRDPYyNNGfjpP-72">
          <mxGeometry relative="1" as="geometry" />
        </mxCell>
        <mxCell id="Vvrnn_XJRDPYyNNGfjpP-70" value="" style="rounded=1;whiteSpace=wrap;html=1;fillColor=#33001A;" vertex="1" parent="1">
          <mxGeometry x="138.13" y="2420" width="107.5" height="30" as="geometry" />
        </mxCell>
        <mxCell id="Vvrnn_XJRDPYyNNGfjpP-71" style="edgeStyle=orthogonalEdgeStyle;rounded=0;orthogonalLoop=1;jettySize=auto;html=1;exitX=0.5;exitY=1;exitDx=0;exitDy=0;entryX=0.5;entryY=0;entryDx=0;entryDy=0;" edge="1" parent="1" source="Vvrnn_XJRDPYyNNGfjpP-72" target="Vvrnn_XJRDPYyNNGfjpP-83">
          <mxGeometry relative="1" as="geometry">
            <mxPoint x="228.13" y="2560" as="targetPoint" />
          </mxGeometry>
        </mxCell>
        <mxCell id="Vvrnn_XJRDPYyNNGfjpP-72" value="登入" style="rounded=1;whiteSpace=wrap;html=1;" vertex="1" parent="1">
          <mxGeometry x="150.63" y="2490" width="82.5" height="40" as="geometry" />
        </mxCell>
        <mxCell id="Vvrnn_XJRDPYyNNGfjpP-73" style="edgeStyle=orthogonalEdgeStyle;rounded=0;orthogonalLoop=1;jettySize=auto;html=1;exitX=0.5;exitY=1;exitDx=0;exitDy=0;entryX=0.5;entryY=0;entryDx=0;entryDy=0;" edge="1" parent="1" source="Vvrnn_XJRDPYyNNGfjpP-74" target="Vvrnn_XJRDPYyNNGfjpP-86">
          <mxGeometry relative="1" as="geometry" />
        </mxCell>
        <mxCell id="Vvrnn_XJRDPYyNNGfjpP-74" value="確認送出" style="rounded=1;whiteSpace=wrap;html=1;" vertex="1" parent="1">
          <mxGeometry x="150.63" y="2650" width="82.5" height="40" as="geometry" />
        </mxCell>
        <mxCell id="Vvrnn_XJRDPYyNNGfjpP-75" style="edgeStyle=orthogonalEdgeStyle;rounded=0;orthogonalLoop=1;jettySize=auto;html=1;exitX=0.5;exitY=1;exitDx=0;exitDy=0;entryX=0.5;entryY=0;entryDx=0;entryDy=0;" edge="1" parent="1" source="Vvrnn_XJRDPYyNNGfjpP-79" target="Vvrnn_XJRDPYyNNGfjpP-81">
          <mxGeometry relative="1" as="geometry">
            <mxPoint x="191.38" y="2880" as="targetPoint" />
          </mxGeometry>
        </mxCell>
        <mxCell id="Vvrnn_XJRDPYyNNGfjpP-76" value="通過" style="edgeLabel;html=1;align=center;verticalAlign=middle;resizable=0;points=[];" connectable="0" vertex="1" parent="Vvrnn_XJRDPYyNNGfjpP-75">
          <mxGeometry x="-0.4667" y="1" relative="1" as="geometry">
            <mxPoint as="offset" />
          </mxGeometry>
        </mxCell>
        <mxCell id="Vvrnn_XJRDPYyNNGfjpP-77" style="edgeStyle=orthogonalEdgeStyle;rounded=0;orthogonalLoop=1;jettySize=auto;html=1;exitX=1;exitY=0.5;exitDx=0;exitDy=0;entryX=1;entryY=0.5;entryDx=0;entryDy=0;" edge="1" parent="1" source="Vvrnn_XJRDPYyNNGfjpP-79" target="Vvrnn_XJRDPYyNNGfjpP-83">
          <mxGeometry relative="1" as="geometry" />
        </mxCell>
        <mxCell id="Vvrnn_XJRDPYyNNGfjpP-78" value="未通過" style="edgeLabel;html=1;align=center;verticalAlign=middle;resizable=0;points=[];" connectable="0" vertex="1" parent="Vvrnn_XJRDPYyNNGfjpP-77">
          <mxGeometry x="0.0946" y="-1" relative="1" as="geometry">
            <mxPoint y="-1" as="offset" />
          </mxGeometry>
        </mxCell>
        <mxCell id="Vvrnn_XJRDPYyNNGfjpP-79" value="" style="rhombus;whiteSpace=wrap;html=1;" vertex="1" parent="1">
          <mxGeometry x="177.0300000000001" y="2810" width="28.75" height="30" as="geometry" />
        </mxCell>
        <mxCell id="Vvrnn_XJRDPYyNNGfjpP-80" style="edgeStyle=orthogonalEdgeStyle;rounded=0;orthogonalLoop=1;jettySize=auto;html=1;exitX=0.5;exitY=1;exitDx=0;exitDy=0;entryX=0.5;entryY=0;entryDx=0;entryDy=0;" edge="1" parent="1" source="Vvrnn_XJRDPYyNNGfjpP-81" target="Vvrnn_XJRDPYyNNGfjpP-92">
          <mxGeometry relative="1" as="geometry" />
        </mxCell>
        <mxCell id="Vvrnn_XJRDPYyNNGfjpP-81" value="查看結果" style="rounded=1;whiteSpace=wrap;html=1;" vertex="1" parent="1">
          <mxGeometry x="150.63" y="2880" width="82.5" height="40" as="geometry" />
        </mxCell>
        <mxCell id="Vvrnn_XJRDPYyNNGfjpP-82" style="edgeStyle=orthogonalEdgeStyle;rounded=0;orthogonalLoop=1;jettySize=auto;html=1;exitX=0.5;exitY=1;exitDx=0;exitDy=0;entryX=0.5;entryY=0;entryDx=0;entryDy=0;" edge="1" parent="1" source="Vvrnn_XJRDPYyNNGfjpP-83" target="Vvrnn_XJRDPYyNNGfjpP-74">
          <mxGeometry relative="1" as="geometry" />
        </mxCell>
        <mxCell id="Vvrnn_XJRDPYyNNGfjpP-83" value="填寫出租房屋相關資料" style="rounded=1;whiteSpace=wrap;html=1;" vertex="1" parent="1">
          <mxGeometry x="150.63" y="2569" width="82.5" height="40" as="geometry" />
        </mxCell>
        <mxCell id="Vvrnn_XJRDPYyNNGfjpP-84" style="edgeStyle=orthogonalEdgeStyle;rounded=0;orthogonalLoop=1;jettySize=auto;html=1;exitX=0;exitY=0.5;exitDx=0;exitDy=0;" edge="1" parent="1" source="Vvrnn_XJRDPYyNNGfjpP-93">
          <mxGeometry relative="1" as="geometry">
            <mxPoint x="179.38" y="2365" as="targetPoint" />
            <Array as="points">
              <mxPoint x="92" y="3090" />
              <mxPoint x="92" y="2365" />
            </Array>
            <mxPoint x="109.42000000000004" y="3015" as="sourcePoint" />
          </mxGeometry>
        </mxCell>
        <mxCell id="Vvrnn_XJRDPYyNNGfjpP-85" style="edgeStyle=orthogonalEdgeStyle;rounded=0;orthogonalLoop=1;jettySize=auto;html=1;exitX=0.5;exitY=1;exitDx=0;exitDy=0;entryX=0.5;entryY=0;entryDx=0;entryDy=0;" edge="1" parent="1" source="Vvrnn_XJRDPYyNNGfjpP-86" target="Vvrnn_XJRDPYyNNGfjpP-79">
          <mxGeometry relative="1" as="geometry" />
        </mxCell>
        <mxCell id="Vvrnn_XJRDPYyNNGfjpP-86" value="待管理員審核通過" style="rounded=1;whiteSpace=wrap;html=1;" vertex="1" parent="1">
          <mxGeometry x="150.63" y="2730" width="82.5" height="40" as="geometry" />
        </mxCell>
        <mxCell id="Vvrnn_XJRDPYyNNGfjpP-87" value="&lt;span style=&quot;font-size: 25px;&quot;&gt;PO文&amp;amp;刪除PO文-房東&lt;/span&gt;" style="text;html=1;align=center;verticalAlign=middle;whiteSpace=wrap;rounded=0;" vertex="1" parent="1">
          <mxGeometry x="70" y="3150" width="267.12" height="30" as="geometry" />
        </mxCell>
        <mxCell id="Vvrnn_XJRDPYyNNGfjpP-88" style="edgeStyle=orthogonalEdgeStyle;rounded=0;orthogonalLoop=1;jettySize=auto;html=1;exitX=0.5;exitY=1;exitDx=0;exitDy=0;entryX=0.5;entryY=0;entryDx=0;entryDy=0;" edge="1" parent="1" source="Vvrnn_XJRDPYyNNGfjpP-92" target="Vvrnn_XJRDPYyNNGfjpP-93">
          <mxGeometry relative="1" as="geometry" />
        </mxCell>
        <mxCell id="Vvrnn_XJRDPYyNNGfjpP-89" value="刪除" style="edgeLabel;html=1;align=center;verticalAlign=middle;resizable=0;points=[];" connectable="0" vertex="1" parent="Vvrnn_XJRDPYyNNGfjpP-88">
          <mxGeometry x="-0.4667" y="1" relative="1" as="geometry">
            <mxPoint as="offset" />
          </mxGeometry>
        </mxCell>
        <mxCell id="Vvrnn_XJRDPYyNNGfjpP-90" style="edgeStyle=orthogonalEdgeStyle;rounded=0;orthogonalLoop=1;jettySize=auto;html=1;exitX=1;exitY=0.5;exitDx=0;exitDy=0;entryX=1;entryY=0.5;entryDx=0;entryDy=0;" edge="1" parent="1" source="Vvrnn_XJRDPYyNNGfjpP-92" target="Vvrnn_XJRDPYyNNGfjpP-81">
          <mxGeometry relative="1" as="geometry">
            <Array as="points">
              <mxPoint x="270" y="2985" />
              <mxPoint x="270" y="2900" />
            </Array>
          </mxGeometry>
        </mxCell>
        <mxCell id="Vvrnn_XJRDPYyNNGfjpP-91" value="不刪除" style="edgeLabel;html=1;align=center;verticalAlign=middle;resizable=0;points=[];" connectable="0" vertex="1" parent="Vvrnn_XJRDPYyNNGfjpP-90">
          <mxGeometry x="0.3175" y="-1" relative="1" as="geometry">
            <mxPoint as="offset" />
          </mxGeometry>
        </mxCell>
        <mxCell id="Vvrnn_XJRDPYyNNGfjpP-92" value="" style="rhombus;whiteSpace=wrap;html=1;" vertex="1" parent="1">
          <mxGeometry x="178.12999999999994" y="2970" width="28.75" height="30" as="geometry" />
        </mxCell>
        <mxCell id="Vvrnn_XJRDPYyNNGfjpP-93" value="查看更新後的結果" style="rounded=1;whiteSpace=wrap;html=1;" vertex="1" parent="1">
          <mxGeometry x="151.24999999999994" y="3070" width="82.5" height="40" as="geometry" />
        </mxCell>
        <mxCell id="Vvrnn_XJRDPYyNNGfjpP-94" value="" style="ellipse;html=1;shape=endState;fillColor=#000000;strokeColor=#ff0000;" vertex="1" parent="1">
          <mxGeometry x="1110.62" y="2290" width="30" height="30" as="geometry" />
        </mxCell>
        <mxCell id="Vvrnn_XJRDPYyNNGfjpP-95" style="edgeStyle=orthogonalEdgeStyle;rounded=0;orthogonalLoop=1;jettySize=auto;html=1;entryX=0.5;entryY=0;entryDx=0;entryDy=0;" edge="1" parent="1" target="Vvrnn_XJRDPYyNNGfjpP-99">
          <mxGeometry relative="1" as="geometry">
            <mxPoint x="1125.62" y="2380" as="sourcePoint" />
          </mxGeometry>
        </mxCell>
        <mxCell id="Vvrnn_XJRDPYyNNGfjpP-96" style="edgeStyle=orthogonalEdgeStyle;rounded=0;orthogonalLoop=1;jettySize=auto;html=1;exitX=0.611;exitY=0.744;exitDx=0;exitDy=0;entryX=0.5;entryY=1;entryDx=0;entryDy=0;exitPerimeter=0;" edge="1" parent="1" source="Vvrnn_XJRDPYyNNGfjpP-97" target="Vvrnn_XJRDPYyNNGfjpP-94">
          <mxGeometry relative="1" as="geometry">
            <Array as="points">
              <mxPoint x="1125.62" y="2382" />
            </Array>
          </mxGeometry>
        </mxCell>
        <mxCell id="Vvrnn_XJRDPYyNNGfjpP-97" value="" style="ellipse;html=1;shape=startState;fillColor=#000000;strokeColor=#33001A;" vertex="1" parent="1">
          <mxGeometry x="1110.62" y="2360" width="30" height="30" as="geometry" />
        </mxCell>
        <mxCell id="Vvrnn_XJRDPYyNNGfjpP-98" style="edgeStyle=orthogonalEdgeStyle;rounded=0;orthogonalLoop=1;jettySize=auto;html=1;exitX=0.5;exitY=1;exitDx=0;exitDy=0;" edge="1" parent="1" source="Vvrnn_XJRDPYyNNGfjpP-99" target="Vvrnn_XJRDPYyNNGfjpP-101">
          <mxGeometry relative="1" as="geometry" />
        </mxCell>
        <mxCell id="Vvrnn_XJRDPYyNNGfjpP-99" value="" style="rounded=1;whiteSpace=wrap;html=1;fillColor=#33001A;" vertex="1" parent="1">
          <mxGeometry x="1071.87" y="2430" width="107.5" height="30" as="geometry" />
        </mxCell>
        <mxCell id="Vvrnn_XJRDPYyNNGfjpP-100" style="edgeStyle=orthogonalEdgeStyle;rounded=0;orthogonalLoop=1;jettySize=auto;html=1;exitX=0.5;exitY=1;exitDx=0;exitDy=0;entryX=0.5;entryY=0;entryDx=0;entryDy=0;" edge="1" parent="1" source="Vvrnn_XJRDPYyNNGfjpP-101" target="Vvrnn_XJRDPYyNNGfjpP-112">
          <mxGeometry relative="1" as="geometry">
            <mxPoint x="1161.87" y="2570" as="targetPoint" />
          </mxGeometry>
        </mxCell>
        <mxCell id="Vvrnn_XJRDPYyNNGfjpP-101" value="登入" style="rounded=1;whiteSpace=wrap;html=1;" vertex="1" parent="1">
          <mxGeometry x="1084.37" y="2500" width="82.5" height="40" as="geometry" />
        </mxCell>
        <mxCell id="Vvrnn_XJRDPYyNNGfjpP-102" style="edgeStyle=orthogonalEdgeStyle;rounded=0;orthogonalLoop=1;jettySize=auto;html=1;exitX=0.5;exitY=1;exitDx=0;exitDy=0;entryX=0.5;entryY=0;entryDx=0;entryDy=0;" edge="1" parent="1" source="Vvrnn_XJRDPYyNNGfjpP-103" target="Vvrnn_XJRDPYyNNGfjpP-115">
          <mxGeometry relative="1" as="geometry" />
        </mxCell>
        <mxCell id="Vvrnn_XJRDPYyNNGfjpP-103" value="點選待確認評論" style="rounded=1;whiteSpace=wrap;html=1;" vertex="1" parent="1">
          <mxGeometry x="1084.37" y="2660" width="82.5" height="40" as="geometry" />
        </mxCell>
        <mxCell id="Vvrnn_XJRDPYyNNGfjpP-104" style="edgeStyle=orthogonalEdgeStyle;rounded=0;orthogonalLoop=1;jettySize=auto;html=1;exitX=0.5;exitY=1;exitDx=0;exitDy=0;entryX=0.5;entryY=0;entryDx=0;entryDy=0;" edge="1" parent="1" source="Vvrnn_XJRDPYyNNGfjpP-108" target="Vvrnn_XJRDPYyNNGfjpP-110">
          <mxGeometry relative="1" as="geometry">
            <mxPoint x="1125.12" y="2890" as="targetPoint" />
            <Array as="points">
              <mxPoint x="1125" y="2860" />
              <mxPoint x="1126" y="2860" />
            </Array>
          </mxGeometry>
        </mxCell>
        <mxCell id="Vvrnn_XJRDPYyNNGfjpP-105" value="是" style="edgeLabel;html=1;align=center;verticalAlign=middle;resizable=0;points=[];" connectable="0" vertex="1" parent="Vvrnn_XJRDPYyNNGfjpP-104">
          <mxGeometry x="-0.4667" y="1" relative="1" as="geometry">
            <mxPoint as="offset" />
          </mxGeometry>
        </mxCell>
        <mxCell id="Vvrnn_XJRDPYyNNGfjpP-106" style="edgeStyle=orthogonalEdgeStyle;rounded=0;orthogonalLoop=1;jettySize=auto;html=1;exitX=1;exitY=0.5;exitDx=0;exitDy=0;" edge="1" parent="1" source="Vvrnn_XJRDPYyNNGfjpP-108">
          <mxGeometry relative="1" as="geometry">
            <mxPoint x="1240" y="2835" as="targetPoint" />
          </mxGeometry>
        </mxCell>
        <mxCell id="Vvrnn_XJRDPYyNNGfjpP-107" value="否" style="edgeLabel;html=1;align=center;verticalAlign=middle;resizable=0;points=[];" connectable="0" vertex="1" parent="Vvrnn_XJRDPYyNNGfjpP-106">
          <mxGeometry x="0.0946" y="-1" relative="1" as="geometry">
            <mxPoint y="-1" as="offset" />
          </mxGeometry>
        </mxCell>
        <mxCell id="Vvrnn_XJRDPYyNNGfjpP-108" value="" style="rhombus;whiteSpace=wrap;html=1;" vertex="1" parent="1">
          <mxGeometry x="1110.77" y="2820" width="28.75" height="30" as="geometry" />
        </mxCell>
        <mxCell id="Vvrnn_XJRDPYyNNGfjpP-109" style="edgeStyle=orthogonalEdgeStyle;rounded=0;orthogonalLoop=1;jettySize=auto;html=1;exitX=0.5;exitY=1;exitDx=0;exitDy=0;entryX=0.5;entryY=0;entryDx=0;entryDy=0;" edge="1" parent="1" source="Vvrnn_XJRDPYyNNGfjpP-110" target="Vvrnn_XJRDPYyNNGfjpP-118">
          <mxGeometry relative="1" as="geometry" />
        </mxCell>
        <mxCell id="Vvrnn_XJRDPYyNNGfjpP-110" value="點選通過" style="rounded=1;whiteSpace=wrap;html=1;" vertex="1" parent="1">
          <mxGeometry x="1083.8999999999999" y="2903" width="82.5" height="40" as="geometry" />
        </mxCell>
        <mxCell id="Vvrnn_XJRDPYyNNGfjpP-111" style="edgeStyle=orthogonalEdgeStyle;rounded=0;orthogonalLoop=1;jettySize=auto;html=1;exitX=0.5;exitY=1;exitDx=0;exitDy=0;entryX=0.5;entryY=0;entryDx=0;entryDy=0;" edge="1" parent="1" source="Vvrnn_XJRDPYyNNGfjpP-112" target="Vvrnn_XJRDPYyNNGfjpP-103">
          <mxGeometry relative="1" as="geometry" />
        </mxCell>
        <mxCell id="Vvrnn_XJRDPYyNNGfjpP-112" value="點擊頭像" style="rounded=1;whiteSpace=wrap;html=1;" vertex="1" parent="1">
          <mxGeometry x="1084.37" y="2579" width="82.5" height="40" as="geometry" />
        </mxCell>
        <mxCell id="Vvrnn_XJRDPYyNNGfjpP-113" style="edgeStyle=orthogonalEdgeStyle;rounded=0;orthogonalLoop=1;jettySize=auto;html=1;exitX=0;exitY=0.5;exitDx=0;exitDy=0;" edge="1" parent="1" source="Vvrnn_XJRDPYyNNGfjpP-118">
          <mxGeometry relative="1" as="geometry">
            <mxPoint x="1113.12" y="2375" as="targetPoint" />
            <Array as="points">
              <mxPoint x="1026" y="3010" />
              <mxPoint x="1026" y="2375" />
            </Array>
            <mxPoint x="1043.16" y="3025" as="sourcePoint" />
          </mxGeometry>
        </mxCell>
        <mxCell id="Vvrnn_XJRDPYyNNGfjpP-114" style="edgeStyle=orthogonalEdgeStyle;rounded=0;orthogonalLoop=1;jettySize=auto;html=1;exitX=0.5;exitY=1;exitDx=0;exitDy=0;entryX=0.5;entryY=0;entryDx=0;entryDy=0;" edge="1" parent="1" source="Vvrnn_XJRDPYyNNGfjpP-115" target="Vvrnn_XJRDPYyNNGfjpP-108">
          <mxGeometry relative="1" as="geometry" />
        </mxCell>
        <mxCell id="Vvrnn_XJRDPYyNNGfjpP-115" value="評論者是否為租客" style="rounded=1;whiteSpace=wrap;html=1;" vertex="1" parent="1">
          <mxGeometry x="1084.37" y="2740" width="82.5" height="40" as="geometry" />
        </mxCell>
        <mxCell id="Vvrnn_XJRDPYyNNGfjpP-116" value="&lt;span style=&quot;font-size: 25px;&quot;&gt;審核評論者身分&amp;amp;查看個資-房東&lt;/span&gt;" style="text;html=1;align=center;verticalAlign=middle;whiteSpace=wrap;rounded=0;" vertex="1" parent="1">
          <mxGeometry x="995.06" y="3110" width="253.38" height="30" as="geometry" />
        </mxCell>
        <mxCell id="FIf9j0lOS_JBDzGQZV-9-2" style="edgeStyle=orthogonalEdgeStyle;rounded=0;orthogonalLoop=1;jettySize=auto;html=1;exitX=1;exitY=0.5;exitDx=0;exitDy=0;entryX=1;entryY=0.5;entryDx=0;entryDy=0;" edge="1" parent="1" source="Vvrnn_XJRDPYyNNGfjpP-117" target="Vvrnn_XJRDPYyNNGfjpP-103">
          <mxGeometry relative="1" as="geometry" />
        </mxCell>
        <mxCell id="Vvrnn_XJRDPYyNNGfjpP-117" value="點選不通過" style="rounded=1;whiteSpace=wrap;html=1;" vertex="1" parent="1">
          <mxGeometry x="1241" y="2815" width="82.5" height="40" as="geometry" />
        </mxCell>
        <mxCell id="Vvrnn_XJRDPYyNNGfjpP-118" value="查看評論者個資" style="rounded=1;whiteSpace=wrap;html=1;" vertex="1" parent="1">
          <mxGeometry x="1083.8999999999999" y="2990" width="82.5" height="40" as="geometry" />
        </mxCell>
        <mxCell id="Vvrnn_XJRDPYyNNGfjpP-119" value="" style="ellipse;html=1;shape=endState;fillColor=#000000;strokeColor=#ff0000;" vertex="1" parent="1">
          <mxGeometry x="727.3900000000001" y="3269" width="30" height="30" as="geometry" />
        </mxCell>
        <mxCell id="Vvrnn_XJRDPYyNNGfjpP-120" style="edgeStyle=orthogonalEdgeStyle;rounded=0;orthogonalLoop=1;jettySize=auto;html=1;entryX=0.5;entryY=0;entryDx=0;entryDy=0;" edge="1" parent="1" target="Vvrnn_XJRDPYyNNGfjpP-124">
          <mxGeometry relative="1" as="geometry">
            <mxPoint x="742.3900000000001" y="3359" as="sourcePoint" />
          </mxGeometry>
        </mxCell>
        <mxCell id="Vvrnn_XJRDPYyNNGfjpP-121" style="edgeStyle=orthogonalEdgeStyle;rounded=0;orthogonalLoop=1;jettySize=auto;html=1;exitX=0.611;exitY=0.744;exitDx=0;exitDy=0;entryX=0.5;entryY=1;entryDx=0;entryDy=0;exitPerimeter=0;" edge="1" parent="1" source="Vvrnn_XJRDPYyNNGfjpP-122" target="Vvrnn_XJRDPYyNNGfjpP-119">
          <mxGeometry relative="1" as="geometry">
            <Array as="points">
              <mxPoint x="742.3900000000001" y="3361" />
            </Array>
          </mxGeometry>
        </mxCell>
        <mxCell id="Vvrnn_XJRDPYyNNGfjpP-122" value="" style="ellipse;html=1;shape=startState;fillColor=#000000;strokeColor=#33001A;" vertex="1" parent="1">
          <mxGeometry x="727.3900000000001" y="3339" width="30" height="30" as="geometry" />
        </mxCell>
        <mxCell id="Vvrnn_XJRDPYyNNGfjpP-123" style="edgeStyle=orthogonalEdgeStyle;rounded=0;orthogonalLoop=1;jettySize=auto;html=1;exitX=0.5;exitY=1;exitDx=0;exitDy=0;" edge="1" parent="1" source="Vvrnn_XJRDPYyNNGfjpP-124" target="Vvrnn_XJRDPYyNNGfjpP-126">
          <mxGeometry relative="1" as="geometry" />
        </mxCell>
        <mxCell id="Vvrnn_XJRDPYyNNGfjpP-124" value="" style="rounded=1;whiteSpace=wrap;html=1;fillColor=#33001A;" vertex="1" parent="1">
          <mxGeometry x="688.6400000000001" y="3409" width="107.5" height="30" as="geometry" />
        </mxCell>
        <mxCell id="Vvrnn_XJRDPYyNNGfjpP-125" style="edgeStyle=orthogonalEdgeStyle;rounded=0;orthogonalLoop=1;jettySize=auto;html=1;exitX=0.5;exitY=1;exitDx=0;exitDy=0;entryX=0.5;entryY=0;entryDx=0;entryDy=0;" edge="1" parent="1" source="Vvrnn_XJRDPYyNNGfjpP-126" target="Vvrnn_XJRDPYyNNGfjpP-135">
          <mxGeometry relative="1" as="geometry">
            <mxPoint x="778.6400000000001" y="3549" as="targetPoint" />
          </mxGeometry>
        </mxCell>
        <mxCell id="Vvrnn_XJRDPYyNNGfjpP-126" value="登入" style="rounded=1;whiteSpace=wrap;html=1;" vertex="1" parent="1">
          <mxGeometry x="701.1400000000001" y="3479" width="82.5" height="40" as="geometry" />
        </mxCell>
        <mxCell id="Vvrnn_XJRDPYyNNGfjpP-127" style="edgeStyle=orthogonalEdgeStyle;rounded=0;orthogonalLoop=1;jettySize=auto;html=1;exitX=0.5;exitY=1;exitDx=0;exitDy=0;entryX=0.5;entryY=0;entryDx=0;entryDy=0;" edge="1" parent="1" source="Vvrnn_XJRDPYyNNGfjpP-128">
          <mxGeometry relative="1" as="geometry">
            <mxPoint x="742.3900000000001" y="3719" as="targetPoint" />
          </mxGeometry>
        </mxCell>
        <mxCell id="Vvrnn_XJRDPYyNNGfjpP-128" value="審核評論內容" style="rounded=1;whiteSpace=wrap;html=1;" vertex="1" parent="1">
          <mxGeometry x="701.1400000000001" y="3639" width="82.5" height="40" as="geometry" />
        </mxCell>
        <mxCell id="Vvrnn_XJRDPYyNNGfjpP-129" style="edgeStyle=orthogonalEdgeStyle;rounded=0;orthogonalLoop=1;jettySize=auto;html=1;exitX=0.5;exitY=1;exitDx=0;exitDy=0;entryX=0.5;entryY=0;entryDx=0;entryDy=0;" edge="1" parent="1" source="Vvrnn_XJRDPYyNNGfjpP-131" target="Vvrnn_XJRDPYyNNGfjpP-133">
          <mxGeometry relative="1" as="geometry">
            <mxPoint x="741.8900000000001" y="3869" as="targetPoint" />
          </mxGeometry>
        </mxCell>
        <mxCell id="Vvrnn_XJRDPYyNNGfjpP-130" value="通過" style="edgeLabel;html=1;align=center;verticalAlign=middle;resizable=0;points=[];" connectable="0" vertex="1" parent="Vvrnn_XJRDPYyNNGfjpP-129">
          <mxGeometry x="-0.4667" y="1" relative="1" as="geometry">
            <mxPoint as="offset" />
          </mxGeometry>
        </mxCell>
        <mxCell id="Vvrnn_XJRDPYyNNGfjpP-131" value="" style="rhombus;whiteSpace=wrap;html=1;" vertex="1" parent="1">
          <mxGeometry x="728.6400000000001" y="3719" width="28.75" height="30" as="geometry" />
        </mxCell>
        <mxCell id="Vvrnn_XJRDPYyNNGfjpP-132" style="edgeStyle=orthogonalEdgeStyle;rounded=0;orthogonalLoop=1;jettySize=auto;html=1;exitX=0.5;exitY=1;exitDx=0;exitDy=0;entryX=0.5;entryY=0;entryDx=0;entryDy=0;" edge="1" parent="1" source="Vvrnn_XJRDPYyNNGfjpP-133" target="Vvrnn_XJRDPYyNNGfjpP-143">
          <mxGeometry relative="1" as="geometry" />
        </mxCell>
        <mxCell id="Vvrnn_XJRDPYyNNGfjpP-133" value="點選通過" style="rounded=1;whiteSpace=wrap;html=1;" vertex="1" parent="1">
          <mxGeometry x="701.1400000000001" y="3799" width="82.5" height="40" as="geometry" />
        </mxCell>
        <mxCell id="Vvrnn_XJRDPYyNNGfjpP-134" style="edgeStyle=orthogonalEdgeStyle;rounded=0;orthogonalLoop=1;jettySize=auto;html=1;exitX=0.5;exitY=1;exitDx=0;exitDy=0;entryX=0.5;entryY=0;entryDx=0;entryDy=0;" edge="1" parent="1" source="Vvrnn_XJRDPYyNNGfjpP-135" target="Vvrnn_XJRDPYyNNGfjpP-128">
          <mxGeometry relative="1" as="geometry" />
        </mxCell>
        <mxCell id="Vvrnn_XJRDPYyNNGfjpP-135" value="點選待審核評論按鈕" style="rounded=1;whiteSpace=wrap;html=1;" vertex="1" parent="1">
          <mxGeometry x="701.1400000000001" y="3558" width="82.5" height="40" as="geometry" />
        </mxCell>
        <mxCell id="Vvrnn_XJRDPYyNNGfjpP-136" style="edgeStyle=orthogonalEdgeStyle;rounded=0;orthogonalLoop=1;jettySize=auto;html=1;exitX=0;exitY=0.5;exitDx=0;exitDy=0;" edge="1" parent="1" source="Vvrnn_XJRDPYyNNGfjpP-143">
          <mxGeometry relative="1" as="geometry">
            <mxPoint x="729.8900000000001" y="3354" as="targetPoint" />
            <Array as="points">
              <mxPoint x="642" y="3910" />
              <mxPoint x="642" y="3354" />
            </Array>
            <mxPoint x="659.9300000000001" y="4004" as="sourcePoint" />
          </mxGeometry>
        </mxCell>
        <mxCell id="Vvrnn_XJRDPYyNNGfjpP-137" value="&lt;span style=&quot;font-size: 25px;&quot;&gt;審核評論內容-管理員&lt;/span&gt;" style="text;html=1;align=center;verticalAlign=middle;whiteSpace=wrap;rounded=0;" vertex="1" parent="1">
          <mxGeometry x="642.43" y="4000" width="240.56" height="30" as="geometry" />
        </mxCell>
        <mxCell id="Vvrnn_XJRDPYyNNGfjpP-138" style="edgeStyle=orthogonalEdgeStyle;rounded=0;orthogonalLoop=1;jettySize=auto;html=1;exitX=1;exitY=0.5;exitDx=0;exitDy=0;entryX=0;entryY=0.5;entryDx=0;entryDy=0;" edge="1" parent="1" source="Vvrnn_XJRDPYyNNGfjpP-139" target="Vvrnn_XJRDPYyNNGfjpP-142">
          <mxGeometry relative="1" as="geometry">
            <mxPoint x="1038.1100000000001" y="3729" as="sourcePoint" />
          </mxGeometry>
        </mxCell>
        <mxCell id="Vvrnn_XJRDPYyNNGfjpP-139" value="點選不通過" style="rounded=1;whiteSpace=wrap;html=1;" vertex="1" parent="1">
          <mxGeometry x="822.8600000000001" y="3714" width="82.5" height="40" as="geometry" />
        </mxCell>
        <mxCell id="Vvrnn_XJRDPYyNNGfjpP-140" style="edgeStyle=orthogonalEdgeStyle;rounded=0;orthogonalLoop=1;jettySize=auto;html=1;exitX=1;exitY=0.5;exitDx=0;exitDy=0;entryX=0;entryY=0.5;entryDx=0;entryDy=0;" edge="1" parent="1" source="Vvrnn_XJRDPYyNNGfjpP-131" target="Vvrnn_XJRDPYyNNGfjpP-139">
          <mxGeometry relative="1" as="geometry">
            <mxPoint x="822.8600000000001" y="3819" as="targetPoint" />
            <mxPoint x="823.8600000000001" y="3749" as="sourcePoint" />
          </mxGeometry>
        </mxCell>
        <mxCell id="Vvrnn_XJRDPYyNNGfjpP-141" value="沒通過" style="edgeLabel;html=1;align=center;verticalAlign=middle;resizable=0;points=[];" connectable="0" vertex="1" parent="Vvrnn_XJRDPYyNNGfjpP-140">
          <mxGeometry x="-0.4667" y="1" relative="1" as="geometry">
            <mxPoint as="offset" />
          </mxGeometry>
        </mxCell>
        <mxCell id="FIf9j0lOS_JBDzGQZV-9-1" style="edgeStyle=orthogonalEdgeStyle;rounded=0;orthogonalLoop=1;jettySize=auto;html=1;exitX=1;exitY=0.5;exitDx=0;exitDy=0;entryX=1;entryY=0.5;entryDx=0;entryDy=0;" edge="1" parent="1" source="Vvrnn_XJRDPYyNNGfjpP-142" target="Vvrnn_XJRDPYyNNGfjpP-122">
          <mxGeometry relative="1" as="geometry" />
        </mxCell>
        <mxCell id="Vvrnn_XJRDPYyNNGfjpP-142" value="退回給評論者" style="rounded=1;whiteSpace=wrap;html=1;" vertex="1" parent="1">
          <mxGeometry x="943.5900000000001" y="3714" width="82.5" height="40" as="geometry" />
        </mxCell>
        <mxCell id="Vvrnn_XJRDPYyNNGfjpP-143" value="評論結果顯示在該房屋頁面" style="rounded=1;whiteSpace=wrap;html=1;" vertex="1" parent="1">
          <mxGeometry x="701.7700000000001" y="3890" width="82.5" height="40" as="geometry" />
        </mxCell>
      </root>
    </mxGraphModel>
  </diagram>
</mxfile>
